M48
;GenerationSoftware,Autodesk,EAGLE,9.6.2*%
;CreationDate,2020-07-08T13:19:23Z*%
FMAT,2
ICI,OFF
METRIC,TZ,000.000
T3C0.813
T2C1.016
T1C1.321
%
G90
M71
T1
X19101Y18415
X26619Y18415
T2
X3810Y29210
X6350Y29210
X3810Y40640
X6350Y40640
T3
X5080Y45720
X7620Y45720
X12700Y45720
X15240Y45720
X8890Y34290
X7620Y36195
X6350Y34290
X22860Y45720
X25400Y45720
X25400Y48260
X19050Y40640
X24130Y40640
X11430Y40640
X16510Y40640
M30