G04 EAGLE Gerber RS-274X export*
G75*
%MOMM*%
%FSLAX34Y34*%
%LPD*%
%INTop Copper*%
%IPPOS*%
%AMOC8*
5,1,8,0,0,1.08239X$1,22.5*%
G01*
%ADD10P,2.749271X8X22.500000*%
%ADD11C,1.524000*%
%ADD12P,1.429621X8X22.500000*%
%ADD13R,1.300000X1.300000*%
%ADD14R,2.000000X1.300000*%
%ADD15C,0.152400*%

G36*
X344498Y162564D02*
X344498Y162564D01*
X344517Y162562D01*
X344619Y162584D01*
X344721Y162600D01*
X344738Y162610D01*
X344758Y162614D01*
X344847Y162667D01*
X344938Y162716D01*
X344952Y162730D01*
X344969Y162740D01*
X345036Y162819D01*
X345108Y162894D01*
X345116Y162912D01*
X345129Y162927D01*
X345168Y163023D01*
X345211Y163117D01*
X345213Y163137D01*
X345221Y163155D01*
X345239Y163322D01*
X345239Y506478D01*
X345236Y506498D01*
X345238Y506517D01*
X345216Y506619D01*
X345200Y506721D01*
X345190Y506738D01*
X345186Y506758D01*
X345133Y506847D01*
X345084Y506938D01*
X345070Y506952D01*
X345060Y506969D01*
X344981Y507036D01*
X344906Y507108D01*
X344888Y507116D01*
X344873Y507129D01*
X344777Y507168D01*
X344683Y507211D01*
X344663Y507213D01*
X344645Y507221D01*
X344478Y507239D01*
X-14478Y507239D01*
X-14498Y507236D01*
X-14517Y507238D01*
X-14619Y507216D01*
X-14721Y507200D01*
X-14738Y507190D01*
X-14758Y507186D01*
X-14847Y507133D01*
X-14938Y507084D01*
X-14952Y507070D01*
X-14969Y507060D01*
X-15036Y506981D01*
X-15108Y506906D01*
X-15116Y506888D01*
X-15129Y506873D01*
X-15168Y506777D01*
X-15211Y506683D01*
X-15213Y506663D01*
X-15221Y506645D01*
X-15239Y506478D01*
X-15239Y163322D01*
X-15236Y163302D01*
X-15238Y163283D01*
X-15216Y163181D01*
X-15200Y163079D01*
X-15190Y163062D01*
X-15186Y163042D01*
X-15133Y162953D01*
X-15084Y162862D01*
X-15070Y162848D01*
X-15060Y162831D01*
X-14981Y162764D01*
X-14906Y162692D01*
X-14888Y162684D01*
X-14873Y162671D01*
X-14777Y162632D01*
X-14683Y162589D01*
X-14663Y162587D01*
X-14645Y162579D01*
X-14478Y162561D01*
X344478Y162561D01*
X344498Y162564D01*
G37*
%LPC*%
G36*
X185116Y169925D02*
X185116Y169925D01*
X176783Y178258D01*
X176783Y181102D01*
X176780Y181122D01*
X176782Y181141D01*
X176760Y181243D01*
X176744Y181345D01*
X176734Y181362D01*
X176730Y181382D01*
X176677Y181471D01*
X176628Y181562D01*
X176614Y181576D01*
X176604Y181593D01*
X176525Y181660D01*
X176450Y181732D01*
X176432Y181740D01*
X176417Y181753D01*
X176321Y181792D01*
X176227Y181835D01*
X176207Y181837D01*
X176189Y181845D01*
X176022Y181863D01*
X145103Y181863D01*
X47189Y279777D01*
X47152Y279804D01*
X47121Y279837D01*
X47053Y279875D01*
X46990Y279920D01*
X46946Y279934D01*
X46905Y279956D01*
X46829Y279970D01*
X46755Y279993D01*
X46709Y279991D01*
X46663Y280000D01*
X46586Y279988D01*
X46509Y279986D01*
X46465Y279971D01*
X46420Y279964D01*
X46351Y279929D01*
X46278Y279902D01*
X46242Y279873D01*
X46201Y279852D01*
X46146Y279797D01*
X46086Y279748D01*
X46061Y279709D01*
X46029Y279677D01*
X45963Y279557D01*
X45953Y279541D01*
X45951Y279536D01*
X45948Y279530D01*
X45853Y279300D01*
X43280Y276727D01*
X39919Y275335D01*
X36281Y275335D01*
X32920Y276727D01*
X30347Y279300D01*
X28955Y282661D01*
X28955Y301539D01*
X30347Y304900D01*
X32920Y307473D01*
X35343Y308476D01*
X35443Y308538D01*
X35543Y308598D01*
X35547Y308603D01*
X35552Y308606D01*
X35627Y308696D01*
X35703Y308785D01*
X35705Y308791D01*
X35709Y308795D01*
X35751Y308904D01*
X35795Y309013D01*
X35796Y309020D01*
X35797Y309025D01*
X35798Y309043D01*
X35813Y309180D01*
X35813Y389320D01*
X35794Y389435D01*
X35777Y389551D01*
X35775Y389557D01*
X35774Y389563D01*
X35719Y389666D01*
X35666Y389771D01*
X35661Y389775D01*
X35658Y389780D01*
X35574Y389860D01*
X35490Y389943D01*
X35484Y389946D01*
X35480Y389950D01*
X35463Y389958D01*
X35343Y390024D01*
X32920Y391027D01*
X30347Y393600D01*
X28955Y396961D01*
X28955Y415839D01*
X30347Y419200D01*
X32920Y421773D01*
X36281Y423165D01*
X39919Y423165D01*
X43280Y421773D01*
X45853Y419200D01*
X45948Y418970D01*
X45972Y418931D01*
X45988Y418888D01*
X46036Y418827D01*
X46077Y418761D01*
X46113Y418732D01*
X46141Y418696D01*
X46207Y418654D01*
X46267Y418604D01*
X46310Y418588D01*
X46348Y418563D01*
X46424Y418544D01*
X46496Y418516D01*
X46542Y418514D01*
X46587Y418503D01*
X46664Y418509D01*
X46742Y418506D01*
X46786Y418519D01*
X46832Y418522D01*
X46904Y418553D01*
X46978Y418574D01*
X47016Y418600D01*
X47058Y418618D01*
X47165Y418704D01*
X47180Y418715D01*
X47183Y418719D01*
X47189Y418723D01*
X54679Y426213D01*
X166047Y426213D01*
X167387Y424873D01*
X167387Y415290D01*
X167390Y415273D01*
X167388Y415256D01*
X167388Y415254D01*
X167388Y415251D01*
X167410Y415149D01*
X167426Y415047D01*
X167436Y415030D01*
X167440Y415010D01*
X167493Y414921D01*
X167542Y414830D01*
X167556Y414816D01*
X167566Y414799D01*
X167645Y414732D01*
X167720Y414660D01*
X167738Y414652D01*
X167753Y414639D01*
X167849Y414600D01*
X167943Y414557D01*
X167963Y414555D01*
X167981Y414547D01*
X168148Y414529D01*
X168467Y414529D01*
X173229Y409767D01*
X173229Y409448D01*
X173232Y409428D01*
X173230Y409409D01*
X173252Y409307D01*
X173268Y409205D01*
X173278Y409188D01*
X173282Y409168D01*
X173335Y409079D01*
X173384Y408988D01*
X173398Y408974D01*
X173408Y408957D01*
X173487Y408890D01*
X173562Y408818D01*
X173580Y408810D01*
X173595Y408797D01*
X173691Y408758D01*
X173785Y408715D01*
X173805Y408713D01*
X173823Y408705D01*
X173990Y408687D01*
X181610Y408687D01*
X181630Y408690D01*
X181649Y408688D01*
X181751Y408710D01*
X181853Y408726D01*
X181870Y408736D01*
X181890Y408740D01*
X181979Y408793D01*
X182070Y408842D01*
X182084Y408856D01*
X182101Y408866D01*
X182168Y408945D01*
X182240Y409020D01*
X182248Y409038D01*
X182261Y409053D01*
X182300Y409149D01*
X182343Y409243D01*
X182345Y409263D01*
X182353Y409281D01*
X182371Y409448D01*
X182371Y409767D01*
X187133Y414529D01*
X193867Y414529D01*
X198629Y409767D01*
X198629Y403033D01*
X193867Y398271D01*
X187133Y398271D01*
X182371Y403033D01*
X182371Y403352D01*
X182368Y403372D01*
X182370Y403391D01*
X182348Y403493D01*
X182332Y403595D01*
X182322Y403612D01*
X182318Y403632D01*
X182265Y403721D01*
X182216Y403812D01*
X182202Y403826D01*
X182192Y403843D01*
X182113Y403910D01*
X182038Y403982D01*
X182020Y403990D01*
X182005Y404003D01*
X181909Y404042D01*
X181815Y404085D01*
X181795Y404087D01*
X181777Y404095D01*
X181610Y404113D01*
X173990Y404113D01*
X173970Y404110D01*
X173951Y404112D01*
X173849Y404090D01*
X173747Y404074D01*
X173730Y404064D01*
X173710Y404060D01*
X173621Y404007D01*
X173530Y403958D01*
X173516Y403944D01*
X173499Y403934D01*
X173432Y403855D01*
X173360Y403780D01*
X173352Y403762D01*
X173339Y403747D01*
X173300Y403651D01*
X173257Y403557D01*
X173255Y403537D01*
X173247Y403519D01*
X173229Y403352D01*
X173229Y403033D01*
X168467Y398271D01*
X161733Y398271D01*
X156971Y403033D01*
X156971Y409767D01*
X161733Y414529D01*
X162052Y414529D01*
X162072Y414532D01*
X162091Y414530D01*
X162193Y414552D01*
X162295Y414568D01*
X162312Y414578D01*
X162332Y414582D01*
X162421Y414635D01*
X162512Y414684D01*
X162526Y414698D01*
X162543Y414708D01*
X162610Y414787D01*
X162682Y414862D01*
X162690Y414880D01*
X162703Y414895D01*
X162742Y414991D01*
X162785Y415085D01*
X162787Y415105D01*
X162795Y415123D01*
X162813Y415290D01*
X162813Y420878D01*
X162810Y420898D01*
X162812Y420917D01*
X162790Y421019D01*
X162774Y421121D01*
X162764Y421138D01*
X162760Y421158D01*
X162707Y421247D01*
X162658Y421338D01*
X162644Y421352D01*
X162634Y421369D01*
X162555Y421436D01*
X162480Y421508D01*
X162462Y421516D01*
X162447Y421529D01*
X162351Y421568D01*
X162257Y421611D01*
X162237Y421613D01*
X162219Y421621D01*
X162052Y421639D01*
X70651Y421639D01*
X70580Y421628D01*
X70509Y421626D01*
X70460Y421608D01*
X70408Y421600D01*
X70345Y421566D01*
X70278Y421541D01*
X70237Y421509D01*
X70191Y421484D01*
X70142Y421432D01*
X70086Y421388D01*
X70057Y421344D01*
X70022Y421306D01*
X69991Y421241D01*
X69953Y421181D01*
X69940Y421130D01*
X69918Y421083D01*
X69910Y421012D01*
X69893Y420942D01*
X69897Y420890D01*
X69891Y420839D01*
X69906Y420768D01*
X69912Y420697D01*
X69932Y420649D01*
X69943Y420598D01*
X69980Y420537D01*
X70008Y420471D01*
X70053Y420415D01*
X70069Y420387D01*
X70087Y420372D01*
X70113Y420340D01*
X71253Y419200D01*
X72645Y415839D01*
X72645Y396961D01*
X71253Y393600D01*
X68680Y391027D01*
X66257Y390024D01*
X66157Y389962D01*
X66057Y389902D01*
X66053Y389897D01*
X66048Y389894D01*
X65973Y389804D01*
X65897Y389715D01*
X65895Y389709D01*
X65891Y389705D01*
X65849Y389596D01*
X65805Y389487D01*
X65804Y389480D01*
X65803Y389475D01*
X65802Y389457D01*
X65787Y389320D01*
X65787Y351790D01*
X65790Y351770D01*
X65788Y351751D01*
X65810Y351649D01*
X65826Y351547D01*
X65836Y351530D01*
X65840Y351510D01*
X65893Y351421D01*
X65942Y351330D01*
X65956Y351316D01*
X65966Y351299D01*
X66045Y351232D01*
X66120Y351160D01*
X66138Y351152D01*
X66153Y351139D01*
X66249Y351100D01*
X66343Y351057D01*
X66363Y351055D01*
X66381Y351047D01*
X66548Y351029D01*
X66867Y351029D01*
X68804Y349092D01*
X68862Y349050D01*
X68914Y349001D01*
X68961Y348979D01*
X69003Y348948D01*
X69072Y348927D01*
X69137Y348897D01*
X69189Y348891D01*
X69239Y348876D01*
X69310Y348878D01*
X69381Y348870D01*
X69432Y348881D01*
X69484Y348882D01*
X69552Y348907D01*
X69622Y348922D01*
X69667Y348949D01*
X69715Y348967D01*
X69771Y349012D01*
X69833Y349049D01*
X69867Y349088D01*
X69907Y349121D01*
X69946Y349181D01*
X69993Y349235D01*
X70012Y349284D01*
X70040Y349328D01*
X70058Y349397D01*
X70085Y349464D01*
X70093Y349535D01*
X70101Y349566D01*
X70099Y349589D01*
X70103Y349630D01*
X70103Y356236D01*
X70089Y356326D01*
X70081Y356417D01*
X70069Y356446D01*
X70064Y356478D01*
X70021Y356559D01*
X69985Y356643D01*
X69959Y356675D01*
X69948Y356696D01*
X69925Y356718D01*
X69880Y356774D01*
X68071Y358583D01*
X68071Y365317D01*
X72833Y370079D01*
X79567Y370079D01*
X84329Y365317D01*
X84329Y364998D01*
X84332Y364978D01*
X84330Y364959D01*
X84352Y364857D01*
X84368Y364755D01*
X84378Y364738D01*
X84382Y364718D01*
X84435Y364629D01*
X84484Y364538D01*
X84498Y364524D01*
X84508Y364507D01*
X84587Y364440D01*
X84662Y364368D01*
X84680Y364360D01*
X84695Y364347D01*
X84791Y364308D01*
X84885Y364265D01*
X84905Y364263D01*
X84923Y364255D01*
X85090Y364237D01*
X271814Y364237D01*
X271834Y364240D01*
X271853Y364238D01*
X271955Y364260D01*
X272057Y364276D01*
X272074Y364286D01*
X272094Y364290D01*
X272183Y364343D01*
X272274Y364392D01*
X272288Y364406D01*
X272305Y364416D01*
X272372Y364495D01*
X272444Y364570D01*
X272452Y364588D01*
X272465Y364603D01*
X272504Y364699D01*
X272547Y364793D01*
X272549Y364813D01*
X272557Y364831D01*
X272575Y364998D01*
X272575Y373332D01*
X273468Y374225D01*
X277552Y374225D01*
X277572Y374228D01*
X277591Y374226D01*
X277693Y374248D01*
X277795Y374264D01*
X277812Y374274D01*
X277832Y374278D01*
X277921Y374331D01*
X278012Y374380D01*
X278026Y374394D01*
X278043Y374404D01*
X278110Y374483D01*
X278182Y374558D01*
X278190Y374576D01*
X278203Y374591D01*
X278242Y374687D01*
X278285Y374781D01*
X278287Y374801D01*
X278295Y374819D01*
X278313Y374986D01*
X278313Y410647D01*
X280617Y412951D01*
X280628Y412967D01*
X280644Y412979D01*
X280700Y413066D01*
X280760Y413150D01*
X280766Y413169D01*
X280777Y413186D01*
X280802Y413286D01*
X280833Y413385D01*
X280832Y413405D01*
X280837Y413425D01*
X280829Y413528D01*
X280826Y413631D01*
X280819Y413650D01*
X280818Y413670D01*
X280777Y413765D01*
X280742Y413862D01*
X280729Y413878D01*
X280721Y413896D01*
X280617Y414027D01*
X280575Y414068D01*
X280575Y426938D01*
X280572Y426958D01*
X280574Y426977D01*
X280552Y427079D01*
X280536Y427181D01*
X280526Y427198D01*
X280522Y427218D01*
X280469Y427307D01*
X280420Y427398D01*
X280406Y427412D01*
X280396Y427429D01*
X280317Y427496D01*
X280242Y427568D01*
X280224Y427576D01*
X280209Y427589D01*
X280113Y427628D01*
X280019Y427671D01*
X279999Y427673D01*
X279981Y427681D01*
X279814Y427699D01*
X254867Y427699D01*
X253304Y429262D01*
X233269Y449297D01*
X233253Y449309D01*
X233241Y449324D01*
X233153Y449380D01*
X233069Y449440D01*
X233050Y449446D01*
X233034Y449457D01*
X232933Y449482D01*
X232834Y449513D01*
X232814Y449512D01*
X232795Y449517D01*
X232692Y449509D01*
X232589Y449506D01*
X232570Y449500D01*
X232550Y449498D01*
X232455Y449458D01*
X232357Y449422D01*
X232342Y449409D01*
X232324Y449402D01*
X232193Y449297D01*
X231967Y449071D01*
X225233Y449071D01*
X220471Y453833D01*
X220471Y454152D01*
X220470Y454159D01*
X220470Y454161D01*
X220468Y454172D01*
X220470Y454191D01*
X220448Y454293D01*
X220432Y454395D01*
X220422Y454412D01*
X220418Y454432D01*
X220365Y454521D01*
X220316Y454612D01*
X220302Y454626D01*
X220292Y454643D01*
X220213Y454710D01*
X220138Y454782D01*
X220120Y454790D01*
X220105Y454803D01*
X220009Y454842D01*
X219915Y454885D01*
X219895Y454887D01*
X219877Y454895D01*
X219710Y454913D01*
X161290Y454913D01*
X161270Y454910D01*
X161251Y454912D01*
X161149Y454890D01*
X161047Y454874D01*
X161030Y454864D01*
X161010Y454860D01*
X160921Y454807D01*
X160830Y454758D01*
X160816Y454744D01*
X160799Y454734D01*
X160732Y454655D01*
X160660Y454580D01*
X160652Y454562D01*
X160639Y454547D01*
X160600Y454451D01*
X160557Y454357D01*
X160555Y454337D01*
X160547Y454319D01*
X160529Y454152D01*
X160529Y453833D01*
X155767Y449071D01*
X149033Y449071D01*
X144271Y453833D01*
X144271Y460567D01*
X149033Y465329D01*
X155767Y465329D01*
X160529Y460567D01*
X160529Y460248D01*
X160532Y460228D01*
X160530Y460209D01*
X160552Y460107D01*
X160568Y460005D01*
X160578Y459988D01*
X160582Y459968D01*
X160635Y459879D01*
X160684Y459788D01*
X160698Y459774D01*
X160708Y459757D01*
X160787Y459690D01*
X160862Y459618D01*
X160880Y459610D01*
X160895Y459597D01*
X160991Y459558D01*
X161085Y459515D01*
X161105Y459513D01*
X161123Y459505D01*
X161290Y459487D01*
X219710Y459487D01*
X219730Y459490D01*
X219749Y459488D01*
X219851Y459510D01*
X219953Y459526D01*
X219970Y459536D01*
X219990Y459540D01*
X220079Y459593D01*
X220170Y459642D01*
X220184Y459656D01*
X220201Y459666D01*
X220268Y459745D01*
X220340Y459820D01*
X220348Y459838D01*
X220361Y459853D01*
X220400Y459949D01*
X220443Y460043D01*
X220445Y460063D01*
X220453Y460081D01*
X220471Y460248D01*
X220471Y460567D01*
X225233Y465329D01*
X231967Y465329D01*
X236729Y460567D01*
X236729Y453833D01*
X236503Y453607D01*
X236491Y453591D01*
X236476Y453579D01*
X236420Y453492D01*
X236360Y453408D01*
X236354Y453389D01*
X236343Y453372D01*
X236318Y453271D01*
X236287Y453173D01*
X236288Y453153D01*
X236283Y453133D01*
X236291Y453030D01*
X236294Y452927D01*
X236300Y452908D01*
X236302Y452888D01*
X236342Y452793D01*
X236378Y452696D01*
X236391Y452680D01*
X236398Y452662D01*
X236503Y452531D01*
X256538Y432496D01*
X256612Y432443D01*
X256682Y432383D01*
X256712Y432371D01*
X256738Y432352D01*
X256825Y432325D01*
X256910Y432291D01*
X256951Y432287D01*
X256973Y432280D01*
X257005Y432281D01*
X257077Y432273D01*
X303994Y432273D01*
X306673Y429594D01*
X306673Y412806D01*
X306110Y412243D01*
X306057Y412169D01*
X305997Y412099D01*
X305985Y412069D01*
X305966Y412043D01*
X305939Y411956D01*
X305905Y411871D01*
X305901Y411830D01*
X305894Y411808D01*
X305895Y411776D01*
X305887Y411705D01*
X305887Y374986D01*
X305890Y374966D01*
X305888Y374947D01*
X305910Y374845D01*
X305926Y374743D01*
X305936Y374726D01*
X305940Y374706D01*
X305993Y374617D01*
X306042Y374526D01*
X306056Y374512D01*
X306066Y374495D01*
X306145Y374428D01*
X306220Y374356D01*
X306238Y374348D01*
X306253Y374335D01*
X306349Y374296D01*
X306443Y374253D01*
X306463Y374251D01*
X306481Y374243D01*
X306648Y374225D01*
X310732Y374225D01*
X311625Y373332D01*
X311625Y359068D01*
X310732Y358175D01*
X296468Y358175D01*
X295575Y359068D01*
X295575Y373332D01*
X296468Y374225D01*
X300552Y374225D01*
X300572Y374228D01*
X300591Y374226D01*
X300693Y374248D01*
X300795Y374264D01*
X300812Y374274D01*
X300832Y374278D01*
X300921Y374331D01*
X301012Y374380D01*
X301026Y374394D01*
X301043Y374404D01*
X301110Y374483D01*
X301182Y374558D01*
X301190Y374576D01*
X301203Y374591D01*
X301242Y374687D01*
X301285Y374781D01*
X301287Y374801D01*
X301295Y374819D01*
X301313Y374986D01*
X301313Y412414D01*
X301310Y412434D01*
X301312Y412453D01*
X301290Y412555D01*
X301274Y412657D01*
X301264Y412674D01*
X301260Y412694D01*
X301207Y412783D01*
X301158Y412874D01*
X301144Y412888D01*
X301134Y412905D01*
X301055Y412972D01*
X300980Y413044D01*
X300962Y413052D01*
X300947Y413065D01*
X300851Y413104D01*
X300757Y413147D01*
X300737Y413149D01*
X300719Y413157D01*
X300552Y413175D01*
X287625Y413175D01*
X287534Y413161D01*
X287444Y413153D01*
X287414Y413141D01*
X287382Y413136D01*
X287301Y413093D01*
X287217Y413057D01*
X287185Y413031D01*
X287164Y413020D01*
X287142Y412997D01*
X287086Y412952D01*
X283110Y408976D01*
X283067Y408916D01*
X283025Y408873D01*
X283018Y408857D01*
X282997Y408832D01*
X282985Y408802D01*
X282966Y408776D01*
X282939Y408689D01*
X282934Y408675D01*
X282922Y408649D01*
X282921Y408644D01*
X282905Y408604D01*
X282901Y408563D01*
X282894Y408541D01*
X282895Y408509D01*
X282887Y408437D01*
X282887Y374986D01*
X282890Y374966D01*
X282888Y374947D01*
X282910Y374845D01*
X282926Y374743D01*
X282936Y374726D01*
X282940Y374706D01*
X282993Y374617D01*
X283042Y374526D01*
X283056Y374512D01*
X283066Y374495D01*
X283145Y374428D01*
X283220Y374356D01*
X283238Y374348D01*
X283253Y374335D01*
X283349Y374296D01*
X283443Y374253D01*
X283463Y374251D01*
X283481Y374243D01*
X283648Y374225D01*
X287732Y374225D01*
X288625Y373332D01*
X288625Y359068D01*
X287732Y358175D01*
X273468Y358175D01*
X272543Y359101D01*
X272536Y359145D01*
X272526Y359162D01*
X272522Y359182D01*
X272469Y359271D01*
X272420Y359362D01*
X272406Y359376D01*
X272396Y359393D01*
X272317Y359460D01*
X272242Y359532D01*
X272224Y359540D01*
X272209Y359553D01*
X272113Y359592D01*
X272019Y359635D01*
X271999Y359637D01*
X271981Y359645D01*
X271814Y359663D01*
X85090Y359663D01*
X85070Y359660D01*
X85051Y359662D01*
X84949Y359640D01*
X84847Y359624D01*
X84830Y359614D01*
X84810Y359610D01*
X84721Y359557D01*
X84630Y359508D01*
X84616Y359494D01*
X84599Y359484D01*
X84532Y359405D01*
X84460Y359330D01*
X84452Y359312D01*
X84439Y359297D01*
X84400Y359201D01*
X84357Y359107D01*
X84355Y359087D01*
X84347Y359069D01*
X84329Y358902D01*
X84329Y358583D01*
X79567Y353821D01*
X75438Y353821D01*
X75418Y353818D01*
X75399Y353820D01*
X75297Y353798D01*
X75195Y353782D01*
X75178Y353772D01*
X75158Y353768D01*
X75069Y353715D01*
X74978Y353666D01*
X74964Y353652D01*
X74947Y353642D01*
X74880Y353563D01*
X74808Y353488D01*
X74800Y353470D01*
X74787Y353455D01*
X74748Y353359D01*
X74705Y353265D01*
X74703Y353245D01*
X74695Y353227D01*
X74677Y353060D01*
X74677Y291280D01*
X73328Y289931D01*
X73265Y289918D01*
X73163Y289901D01*
X73146Y289892D01*
X73126Y289888D01*
X73037Y289834D01*
X72946Y289786D01*
X72932Y289772D01*
X72915Y289761D01*
X72848Y289683D01*
X72776Y289608D01*
X72768Y289590D01*
X72755Y289575D01*
X72716Y289478D01*
X72673Y289385D01*
X72671Y289365D01*
X72663Y289346D01*
X72645Y289180D01*
X72645Y282661D01*
X71253Y279300D01*
X68680Y276727D01*
X65319Y275335D01*
X61681Y275335D01*
X59101Y276404D01*
X59006Y276426D01*
X58913Y276455D01*
X58887Y276454D01*
X58862Y276460D01*
X58765Y276451D01*
X58668Y276448D01*
X58643Y276439D01*
X58617Y276437D01*
X58528Y276397D01*
X58437Y276364D01*
X58416Y276348D01*
X58392Y276337D01*
X58321Y276271D01*
X58244Y276210D01*
X58230Y276188D01*
X58211Y276171D01*
X58164Y276085D01*
X58111Y276003D01*
X58105Y275978D01*
X58092Y275955D01*
X58075Y275859D01*
X58051Y275765D01*
X58053Y275739D01*
X58049Y275713D01*
X58063Y275616D01*
X58071Y275520D01*
X58081Y275496D01*
X58085Y275470D01*
X58129Y275383D01*
X58167Y275293D01*
X58187Y275268D01*
X58196Y275250D01*
X58220Y275227D01*
X58272Y275162D01*
X146774Y186660D01*
X146848Y186607D01*
X146918Y186547D01*
X146948Y186535D01*
X146974Y186516D01*
X147061Y186489D01*
X147146Y186455D01*
X147187Y186451D01*
X147209Y186444D01*
X147241Y186445D01*
X147313Y186437D01*
X176022Y186437D01*
X176042Y186440D01*
X176061Y186438D01*
X176163Y186460D01*
X176265Y186476D01*
X176282Y186486D01*
X176302Y186490D01*
X176391Y186543D01*
X176482Y186592D01*
X176496Y186606D01*
X176513Y186616D01*
X176580Y186695D01*
X176652Y186770D01*
X176660Y186788D01*
X176673Y186803D01*
X176712Y186899D01*
X176755Y186993D01*
X176757Y187013D01*
X176765Y187031D01*
X176783Y187198D01*
X176783Y190042D01*
X185116Y198375D01*
X196900Y198375D01*
X205233Y190042D01*
X205233Y178258D01*
X196900Y169925D01*
X185116Y169925D01*
G37*
%LPD*%
%LPC*%
G36*
X260300Y169925D02*
X260300Y169925D01*
X251967Y178258D01*
X251967Y190042D01*
X260300Y198375D01*
X272084Y198375D01*
X274095Y196364D01*
X274111Y196352D01*
X274124Y196336D01*
X274211Y196280D01*
X274295Y196220D01*
X274314Y196214D01*
X274331Y196203D01*
X274431Y196178D01*
X274530Y196148D01*
X274550Y196148D01*
X274569Y196143D01*
X274672Y196151D01*
X274776Y196154D01*
X274795Y196161D01*
X274814Y196163D01*
X274909Y196203D01*
X275007Y196239D01*
X275023Y196251D01*
X275041Y196259D01*
X275172Y196364D01*
X327690Y248882D01*
X327743Y248956D01*
X327803Y249026D01*
X327815Y249056D01*
X327834Y249082D01*
X327861Y249169D01*
X327895Y249254D01*
X327899Y249295D01*
X327906Y249317D01*
X327905Y249349D01*
X327913Y249421D01*
X327913Y479552D01*
X327910Y479572D01*
X327912Y479591D01*
X327890Y479693D01*
X327874Y479795D01*
X327864Y479812D01*
X327860Y479832D01*
X327807Y479921D01*
X327758Y480012D01*
X327744Y480026D01*
X327734Y480043D01*
X327655Y480110D01*
X327580Y480182D01*
X327562Y480190D01*
X327547Y480203D01*
X327451Y480242D01*
X327357Y480285D01*
X327337Y480287D01*
X327319Y480295D01*
X327152Y480313D01*
X262890Y480313D01*
X262870Y480310D01*
X262851Y480312D01*
X262749Y480290D01*
X262647Y480274D01*
X262630Y480264D01*
X262610Y480260D01*
X262521Y480207D01*
X262430Y480158D01*
X262416Y480144D01*
X262399Y480134D01*
X262332Y480055D01*
X262260Y479980D01*
X262252Y479962D01*
X262239Y479947D01*
X262200Y479851D01*
X262157Y479757D01*
X262155Y479737D01*
X262147Y479719D01*
X262129Y479552D01*
X262129Y479233D01*
X257367Y474471D01*
X250633Y474471D01*
X245871Y479233D01*
X245871Y485967D01*
X250633Y490729D01*
X257367Y490729D01*
X262129Y485967D01*
X262129Y485648D01*
X262132Y485628D01*
X262130Y485609D01*
X262152Y485507D01*
X262168Y485405D01*
X262178Y485388D01*
X262182Y485368D01*
X262235Y485279D01*
X262284Y485188D01*
X262298Y485174D01*
X262308Y485157D01*
X262387Y485090D01*
X262462Y485018D01*
X262480Y485010D01*
X262495Y484997D01*
X262591Y484958D01*
X262685Y484915D01*
X262705Y484913D01*
X262723Y484905D01*
X262890Y484887D01*
X331147Y484887D01*
X332487Y483547D01*
X332487Y247211D01*
X278406Y193130D01*
X278394Y193114D01*
X278378Y193101D01*
X278322Y193014D01*
X278262Y192930D01*
X278256Y192911D01*
X278245Y192894D01*
X278220Y192794D01*
X278190Y192695D01*
X278190Y192675D01*
X278185Y192656D01*
X278193Y192553D01*
X278196Y192449D01*
X278203Y192430D01*
X278205Y192410D01*
X278245Y192316D01*
X278281Y192218D01*
X278293Y192202D01*
X278301Y192184D01*
X278406Y192053D01*
X280417Y190042D01*
X280417Y178258D01*
X272084Y169925D01*
X260300Y169925D01*
G37*
%LPD*%
G36*
X54749Y279037D02*
X54749Y279037D01*
X54812Y279034D01*
X54837Y279041D01*
X54863Y279042D01*
X54929Y279066D01*
X54962Y279072D01*
X54987Y279085D01*
X55048Y279103D01*
X55069Y279118D01*
X55094Y279127D01*
X55150Y279171D01*
X55179Y279187D01*
X55199Y279208D01*
X55250Y279243D01*
X55266Y279264D01*
X55286Y279280D01*
X55324Y279339D01*
X55349Y279365D01*
X55362Y279393D01*
X55397Y279440D01*
X55405Y279465D01*
X55419Y279487D01*
X55435Y279551D01*
X55452Y279588D01*
X55456Y279622D01*
X55473Y279674D01*
X55473Y279700D01*
X55479Y279726D01*
X55474Y279787D01*
X55479Y279833D01*
X55471Y279871D01*
X55471Y279920D01*
X55461Y279952D01*
X55460Y279971D01*
X55447Y280001D01*
X55430Y280061D01*
X55427Y280073D01*
X55425Y280076D01*
X55424Y280081D01*
X54355Y282661D01*
X54355Y301539D01*
X55747Y304900D01*
X58320Y307473D01*
X61681Y308865D01*
X65319Y308865D01*
X68680Y307473D01*
X68804Y307349D01*
X68862Y307307D01*
X68914Y307258D01*
X68961Y307236D01*
X69003Y307205D01*
X69072Y307184D01*
X69137Y307154D01*
X69189Y307148D01*
X69239Y307133D01*
X69310Y307135D01*
X69381Y307127D01*
X69432Y307138D01*
X69484Y307139D01*
X69552Y307164D01*
X69622Y307179D01*
X69667Y307206D01*
X69715Y307224D01*
X69771Y307269D01*
X69833Y307305D01*
X69867Y307345D01*
X69907Y307377D01*
X69946Y307438D01*
X69993Y307492D01*
X70012Y307541D01*
X70040Y307584D01*
X70058Y307654D01*
X70085Y307720D01*
X70093Y307792D01*
X70101Y307823D01*
X70099Y307846D01*
X70103Y307887D01*
X70103Y336170D01*
X70092Y336240D01*
X70090Y336312D01*
X70072Y336361D01*
X70064Y336412D01*
X70030Y336476D01*
X70005Y336543D01*
X69973Y336584D01*
X69948Y336630D01*
X69896Y336679D01*
X69852Y336735D01*
X69808Y336763D01*
X69770Y336799D01*
X69705Y336829D01*
X69645Y336868D01*
X69594Y336881D01*
X69547Y336903D01*
X69476Y336911D01*
X69406Y336928D01*
X69354Y336924D01*
X69303Y336930D01*
X69232Y336915D01*
X69161Y336909D01*
X69113Y336889D01*
X69062Y336878D01*
X69001Y336841D01*
X68935Y336813D01*
X68879Y336768D01*
X68851Y336751D01*
X68836Y336734D01*
X68804Y336708D01*
X66867Y334771D01*
X60133Y334771D01*
X55371Y339533D01*
X55371Y346267D01*
X60133Y351029D01*
X60452Y351029D01*
X60472Y351032D01*
X60491Y351030D01*
X60593Y351052D01*
X60695Y351068D01*
X60712Y351078D01*
X60732Y351082D01*
X60821Y351135D01*
X60912Y351184D01*
X60926Y351198D01*
X60943Y351208D01*
X61010Y351287D01*
X61082Y351362D01*
X61090Y351380D01*
X61103Y351395D01*
X61142Y351491D01*
X61185Y351585D01*
X61187Y351605D01*
X61195Y351623D01*
X61213Y351790D01*
X61213Y389320D01*
X61194Y389435D01*
X61177Y389551D01*
X61175Y389557D01*
X61174Y389563D01*
X61119Y389666D01*
X61066Y389771D01*
X61061Y389775D01*
X61058Y389780D01*
X60974Y389860D01*
X60890Y389943D01*
X60884Y389946D01*
X60880Y389950D01*
X60863Y389958D01*
X60743Y390024D01*
X58320Y391027D01*
X55747Y393600D01*
X54355Y396961D01*
X54355Y415839D01*
X55424Y418419D01*
X55446Y418514D01*
X55475Y418607D01*
X55474Y418633D01*
X55480Y418658D01*
X55471Y418755D01*
X55468Y418853D01*
X55459Y418877D01*
X55457Y418903D01*
X55417Y418992D01*
X55384Y419084D01*
X55368Y419104D01*
X55357Y419128D01*
X55291Y419199D01*
X55230Y419276D01*
X55208Y419290D01*
X55191Y419309D01*
X55105Y419356D01*
X55023Y419409D01*
X54998Y419415D01*
X54975Y419428D01*
X54879Y419445D01*
X54785Y419469D01*
X54759Y419467D01*
X54733Y419471D01*
X54636Y419457D01*
X54540Y419449D01*
X54516Y419439D01*
X54490Y419435D01*
X54403Y419391D01*
X54313Y419353D01*
X54288Y419333D01*
X54270Y419324D01*
X54247Y419300D01*
X54182Y419248D01*
X47468Y412534D01*
X47415Y412460D01*
X47355Y412390D01*
X47343Y412360D01*
X47324Y412334D01*
X47297Y412247D01*
X47263Y412162D01*
X47259Y412121D01*
X47252Y412099D01*
X47253Y412067D01*
X47245Y411996D01*
X47245Y396961D01*
X45853Y393600D01*
X43280Y391027D01*
X40857Y390024D01*
X40757Y389962D01*
X40657Y389902D01*
X40653Y389897D01*
X40648Y389894D01*
X40573Y389804D01*
X40497Y389715D01*
X40495Y389709D01*
X40491Y389705D01*
X40449Y389596D01*
X40405Y389487D01*
X40404Y389480D01*
X40403Y389475D01*
X40402Y389457D01*
X40387Y389320D01*
X40387Y309180D01*
X40406Y309065D01*
X40423Y308949D01*
X40425Y308943D01*
X40426Y308937D01*
X40481Y308834D01*
X40534Y308729D01*
X40539Y308725D01*
X40542Y308720D01*
X40626Y308640D01*
X40710Y308557D01*
X40716Y308554D01*
X40720Y308550D01*
X40737Y308542D01*
X40857Y308476D01*
X43280Y307473D01*
X45853Y304900D01*
X47245Y301539D01*
X47245Y286505D01*
X47259Y286414D01*
X47267Y286324D01*
X47279Y286294D01*
X47284Y286262D01*
X47327Y286181D01*
X47363Y286097D01*
X47389Y286065D01*
X47400Y286044D01*
X47423Y286022D01*
X47468Y285966D01*
X54182Y279252D01*
X54260Y279196D01*
X54322Y279142D01*
X54327Y279141D01*
X54336Y279133D01*
X54361Y279123D01*
X54382Y279108D01*
X54475Y279080D01*
X54548Y279051D01*
X54551Y279050D01*
X54566Y279045D01*
X54592Y279043D01*
X54617Y279036D01*
X54671Y279037D01*
X54717Y279032D01*
X54719Y279032D01*
X54749Y279037D01*
G37*
%LPC*%
G36*
X237933Y398271D02*
X237933Y398271D01*
X233171Y403033D01*
X233171Y409767D01*
X237933Y414529D01*
X238252Y414529D01*
X238272Y414532D01*
X238291Y414530D01*
X238393Y414552D01*
X238495Y414568D01*
X238512Y414578D01*
X238532Y414582D01*
X238621Y414635D01*
X238712Y414684D01*
X238726Y414698D01*
X238743Y414708D01*
X238810Y414787D01*
X238882Y414862D01*
X238890Y414880D01*
X238903Y414895D01*
X238942Y414991D01*
X238985Y415085D01*
X238987Y415105D01*
X238995Y415123D01*
X239013Y415290D01*
X239013Y428752D01*
X239010Y428772D01*
X239012Y428791D01*
X238990Y428893D01*
X238974Y428995D01*
X238964Y429012D01*
X238960Y429032D01*
X238907Y429121D01*
X238858Y429212D01*
X238844Y429226D01*
X238834Y429243D01*
X238755Y429310D01*
X238680Y429382D01*
X238662Y429390D01*
X238647Y429403D01*
X238551Y429442D01*
X238457Y429485D01*
X238437Y429487D01*
X238419Y429495D01*
X238252Y429513D01*
X75253Y429513D01*
X73690Y431076D01*
X55469Y449297D01*
X55453Y449309D01*
X55441Y449324D01*
X55353Y449380D01*
X55269Y449440D01*
X55250Y449446D01*
X55234Y449457D01*
X55133Y449482D01*
X55034Y449513D01*
X55014Y449512D01*
X54995Y449517D01*
X54892Y449509D01*
X54789Y449506D01*
X54770Y449500D01*
X54750Y449498D01*
X54655Y449458D01*
X54557Y449422D01*
X54542Y449409D01*
X54524Y449402D01*
X54393Y449297D01*
X54167Y449071D01*
X47433Y449071D01*
X42671Y453833D01*
X42671Y460567D01*
X47433Y465329D01*
X54167Y465329D01*
X58929Y460567D01*
X58929Y453833D01*
X58703Y453607D01*
X58691Y453591D01*
X58676Y453579D01*
X58620Y453492D01*
X58560Y453408D01*
X58554Y453389D01*
X58543Y453372D01*
X58518Y453271D01*
X58487Y453173D01*
X58488Y453153D01*
X58483Y453133D01*
X58491Y453030D01*
X58494Y452927D01*
X58500Y452908D01*
X58502Y452888D01*
X58542Y452793D01*
X58578Y452696D01*
X58591Y452680D01*
X58598Y452662D01*
X58703Y452531D01*
X76924Y434310D01*
X76998Y434257D01*
X77068Y434197D01*
X77098Y434185D01*
X77124Y434166D01*
X77211Y434139D01*
X77296Y434105D01*
X77337Y434101D01*
X77359Y434094D01*
X77391Y434095D01*
X77463Y434087D01*
X242247Y434087D01*
X243587Y432747D01*
X243587Y415290D01*
X243590Y415273D01*
X243588Y415256D01*
X243588Y415254D01*
X243588Y415251D01*
X243610Y415149D01*
X243626Y415047D01*
X243636Y415030D01*
X243640Y415010D01*
X243693Y414921D01*
X243742Y414830D01*
X243756Y414816D01*
X243766Y414799D01*
X243845Y414732D01*
X243920Y414660D01*
X243938Y414652D01*
X243953Y414639D01*
X244049Y414600D01*
X244143Y414557D01*
X244163Y414555D01*
X244181Y414547D01*
X244348Y414529D01*
X244667Y414529D01*
X249429Y409767D01*
X249429Y403033D01*
X244667Y398271D01*
X237933Y398271D01*
G37*
%LPD*%
%LPC*%
G36*
X72833Y449071D02*
X72833Y449071D01*
X68071Y453833D01*
X68071Y460567D01*
X72833Y465329D01*
X79567Y465329D01*
X84329Y460567D01*
X84329Y460248D01*
X84332Y460228D01*
X84330Y460209D01*
X84352Y460107D01*
X84368Y460005D01*
X84378Y459988D01*
X84382Y459968D01*
X84435Y459879D01*
X84484Y459788D01*
X84498Y459774D01*
X84508Y459757D01*
X84587Y459690D01*
X84662Y459618D01*
X84680Y459610D01*
X84695Y459597D01*
X84791Y459558D01*
X84885Y459515D01*
X84905Y459513D01*
X84923Y459505D01*
X85090Y459487D01*
X118110Y459487D01*
X118130Y459490D01*
X118149Y459488D01*
X118251Y459510D01*
X118353Y459526D01*
X118370Y459536D01*
X118390Y459540D01*
X118479Y459593D01*
X118570Y459642D01*
X118584Y459656D01*
X118601Y459666D01*
X118668Y459745D01*
X118740Y459820D01*
X118748Y459838D01*
X118761Y459853D01*
X118800Y459949D01*
X118843Y460043D01*
X118845Y460063D01*
X118853Y460081D01*
X118871Y460248D01*
X118871Y460567D01*
X123633Y465329D01*
X130367Y465329D01*
X135129Y460567D01*
X135129Y453833D01*
X130367Y449071D01*
X123633Y449071D01*
X118871Y453833D01*
X118871Y454152D01*
X118870Y454159D01*
X118870Y454161D01*
X118868Y454172D01*
X118870Y454191D01*
X118848Y454293D01*
X118832Y454395D01*
X118822Y454412D01*
X118818Y454432D01*
X118765Y454521D01*
X118716Y454612D01*
X118702Y454626D01*
X118692Y454643D01*
X118613Y454710D01*
X118538Y454782D01*
X118520Y454790D01*
X118505Y454803D01*
X118409Y454842D01*
X118315Y454885D01*
X118295Y454887D01*
X118277Y454895D01*
X118110Y454913D01*
X85090Y454913D01*
X85070Y454910D01*
X85051Y454912D01*
X84949Y454890D01*
X84847Y454874D01*
X84830Y454864D01*
X84810Y454860D01*
X84721Y454807D01*
X84630Y454758D01*
X84616Y454744D01*
X84599Y454734D01*
X84532Y454655D01*
X84460Y454580D01*
X84452Y454562D01*
X84439Y454547D01*
X84400Y454451D01*
X84357Y454357D01*
X84355Y454337D01*
X84347Y454319D01*
X84329Y454152D01*
X84329Y453833D01*
X79567Y449071D01*
X72833Y449071D01*
G37*
%LPD*%
%LPC*%
G36*
X250633Y449071D02*
X250633Y449071D01*
X245871Y453833D01*
X245871Y460567D01*
X250633Y465329D01*
X257367Y465329D01*
X262129Y460567D01*
X262129Y453833D01*
X257367Y449071D01*
X250633Y449071D01*
G37*
%LPD*%
%LPC*%
G36*
X110933Y398271D02*
X110933Y398271D01*
X106171Y403033D01*
X106171Y409767D01*
X110933Y414529D01*
X117667Y414529D01*
X122429Y409767D01*
X122429Y403033D01*
X117667Y398271D01*
X110933Y398271D01*
G37*
%LPD*%
%LPC*%
G36*
X85533Y334771D02*
X85533Y334771D01*
X80771Y339533D01*
X80771Y346267D01*
X85533Y351029D01*
X92267Y351029D01*
X97029Y346267D01*
X97029Y339533D01*
X92267Y334771D01*
X85533Y334771D01*
G37*
%LPD*%
D10*
X191008Y184150D03*
X266192Y184150D03*
D11*
X38100Y284480D02*
X38100Y299720D01*
X63500Y299720D02*
X63500Y284480D01*
D12*
X50800Y457200D03*
X76200Y457200D03*
X127000Y457200D03*
X152400Y457200D03*
D11*
X38100Y414020D02*
X38100Y398780D01*
X63500Y398780D02*
X63500Y414020D01*
D12*
X88900Y342900D03*
X76200Y361950D03*
X63500Y342900D03*
X228600Y457200D03*
X254000Y457200D03*
X254000Y482600D03*
X190500Y406400D03*
X241300Y406400D03*
D13*
X280600Y366200D03*
X303600Y366200D03*
D14*
X292100Y421200D03*
D12*
X114300Y406400D03*
X165100Y406400D03*
D15*
X72390Y292228D02*
X63628Y292228D01*
X63500Y292100D01*
X72390Y358140D02*
X76200Y361950D01*
X72390Y358140D02*
X72390Y292228D01*
X76200Y361950D02*
X276350Y361950D01*
X280600Y366200D01*
X280600Y409700D01*
X292100Y421200D01*
X191008Y184150D02*
X146050Y184150D01*
X38100Y292100D01*
X38100Y406400D01*
X165100Y406400D02*
X190500Y406400D01*
X165100Y423926D02*
X55626Y423926D01*
X38100Y406400D01*
X165100Y406400D02*
X165100Y423926D01*
X127000Y457200D02*
X76200Y457200D01*
X50800Y457200D02*
X76200Y431800D01*
X241300Y431800D01*
X241300Y406400D01*
X228600Y457200D02*
X152400Y457200D01*
X63500Y406400D02*
X63500Y342900D01*
X304386Y413753D02*
X304386Y428647D01*
X303047Y429986D01*
X304386Y413753D02*
X303600Y412967D01*
X303600Y366200D01*
X255814Y429986D02*
X228600Y457200D01*
X255814Y429986D02*
X303047Y429986D01*
X330200Y248158D02*
X266192Y184150D01*
X330200Y248158D02*
X330200Y482600D01*
X254000Y482600D01*
M02*
