G04 EAGLE Gerber RS-274X export*
G75*
%MOMM*%
%FSLAX34Y34*%
%LPD*%
%INSilkscreen Top*%
%IPPOS*%
%AMOC8*
5,1,8,0,0,1.08239X$1,22.5*%
G01*
%ADD10C,0.152400*%
%ADD11C,0.127000*%
%ADD12C,0.254000*%
%ADD13C,0.050800*%
%ADD14C,0.101600*%
%ADD15R,2.650000X0.400000*%
%ADD16R,0.400000X2.650000*%


D10*
X160020Y346710D02*
X297180Y346710D01*
X247650Y186690D02*
X209550Y186690D01*
X153670Y193040D02*
X153670Y340360D01*
X153670Y193040D02*
X153672Y192882D01*
X153678Y192723D01*
X153688Y192565D01*
X153702Y192408D01*
X153719Y192250D01*
X153741Y192094D01*
X153766Y191937D01*
X153796Y191782D01*
X153829Y191627D01*
X153866Y191473D01*
X153907Y191320D01*
X153952Y191168D01*
X154001Y191018D01*
X154053Y190868D01*
X154109Y190720D01*
X154169Y190573D01*
X154232Y190428D01*
X154299Y190285D01*
X154369Y190143D01*
X154443Y190003D01*
X154521Y189865D01*
X154602Y189729D01*
X154686Y189595D01*
X154773Y189463D01*
X154864Y189333D01*
X154958Y189206D01*
X155055Y189081D01*
X155156Y188958D01*
X155259Y188838D01*
X155365Y188721D01*
X155474Y188606D01*
X155586Y188494D01*
X155701Y188385D01*
X155818Y188279D01*
X155938Y188176D01*
X156061Y188075D01*
X156186Y187978D01*
X156313Y187884D01*
X156443Y187793D01*
X156575Y187706D01*
X156709Y187622D01*
X156845Y187541D01*
X156983Y187463D01*
X157123Y187389D01*
X157265Y187319D01*
X157408Y187252D01*
X157553Y187189D01*
X157700Y187129D01*
X157848Y187073D01*
X157998Y187021D01*
X158148Y186972D01*
X158300Y186927D01*
X158453Y186886D01*
X158607Y186849D01*
X158762Y186816D01*
X158917Y186786D01*
X159074Y186761D01*
X159230Y186739D01*
X159388Y186722D01*
X159545Y186708D01*
X159703Y186698D01*
X159862Y186692D01*
X160020Y186690D01*
X171450Y186690D02*
X171450Y184150D01*
X171452Y184050D01*
X171458Y183951D01*
X171468Y183851D01*
X171481Y183753D01*
X171499Y183654D01*
X171520Y183557D01*
X171545Y183461D01*
X171574Y183365D01*
X171607Y183271D01*
X171643Y183178D01*
X171683Y183087D01*
X171727Y182997D01*
X171774Y182909D01*
X171824Y182823D01*
X171878Y182739D01*
X171935Y182657D01*
X171995Y182578D01*
X172059Y182500D01*
X172125Y182426D01*
X172194Y182354D01*
X172266Y182285D01*
X172340Y182219D01*
X172418Y182155D01*
X172497Y182095D01*
X172579Y182038D01*
X172663Y181984D01*
X172749Y181934D01*
X172837Y181887D01*
X172927Y181843D01*
X173018Y181803D01*
X173111Y181767D01*
X173205Y181734D01*
X173301Y181705D01*
X173397Y181680D01*
X173494Y181659D01*
X173593Y181641D01*
X173691Y181628D01*
X173791Y181618D01*
X173890Y181612D01*
X173990Y181610D01*
X171450Y186690D02*
X160020Y186690D01*
X173990Y181610D02*
X175980Y181610D01*
X209550Y184150D02*
X209550Y186690D01*
X209550Y184150D02*
X209548Y184050D01*
X209542Y183951D01*
X209532Y183851D01*
X209519Y183753D01*
X209501Y183654D01*
X209480Y183557D01*
X209455Y183461D01*
X209426Y183365D01*
X209393Y183271D01*
X209357Y183178D01*
X209317Y183087D01*
X209273Y182997D01*
X209226Y182909D01*
X209176Y182823D01*
X209122Y182739D01*
X209065Y182657D01*
X209005Y182578D01*
X208941Y182500D01*
X208875Y182426D01*
X208806Y182354D01*
X208734Y182285D01*
X208660Y182219D01*
X208582Y182155D01*
X208503Y182095D01*
X208421Y182038D01*
X208337Y181984D01*
X208251Y181934D01*
X208163Y181887D01*
X208073Y181843D01*
X207982Y181803D01*
X207889Y181767D01*
X207795Y181734D01*
X207699Y181705D01*
X207603Y181680D01*
X207506Y181659D01*
X207407Y181641D01*
X207309Y181628D01*
X207209Y181618D01*
X207110Y181612D01*
X207010Y181610D01*
X206030Y181610D01*
X153670Y340360D02*
X153672Y340518D01*
X153678Y340677D01*
X153688Y340835D01*
X153702Y340992D01*
X153719Y341150D01*
X153741Y341306D01*
X153766Y341463D01*
X153796Y341618D01*
X153829Y341773D01*
X153866Y341927D01*
X153907Y342080D01*
X153952Y342232D01*
X154001Y342382D01*
X154053Y342532D01*
X154109Y342680D01*
X154169Y342827D01*
X154232Y342972D01*
X154299Y343115D01*
X154369Y343257D01*
X154443Y343397D01*
X154521Y343535D01*
X154602Y343671D01*
X154686Y343805D01*
X154773Y343937D01*
X154864Y344067D01*
X154958Y344194D01*
X155055Y344319D01*
X155156Y344442D01*
X155259Y344562D01*
X155365Y344679D01*
X155474Y344794D01*
X155586Y344906D01*
X155701Y345015D01*
X155818Y345121D01*
X155938Y345224D01*
X156061Y345325D01*
X156186Y345422D01*
X156313Y345516D01*
X156443Y345607D01*
X156575Y345694D01*
X156709Y345778D01*
X156845Y345859D01*
X156983Y345937D01*
X157123Y346011D01*
X157265Y346081D01*
X157408Y346148D01*
X157553Y346211D01*
X157700Y346271D01*
X157848Y346327D01*
X157998Y346379D01*
X158148Y346428D01*
X158300Y346473D01*
X158453Y346514D01*
X158607Y346551D01*
X158762Y346584D01*
X158917Y346614D01*
X159074Y346639D01*
X159230Y346661D01*
X159388Y346678D01*
X159545Y346692D01*
X159703Y346702D01*
X159862Y346708D01*
X160020Y346710D01*
X303530Y340360D02*
X303530Y193040D01*
X297180Y186690D02*
X285750Y186690D01*
X285750Y184150D01*
X285748Y184050D01*
X285742Y183951D01*
X285732Y183851D01*
X285719Y183753D01*
X285701Y183654D01*
X285680Y183557D01*
X285655Y183461D01*
X285626Y183365D01*
X285593Y183271D01*
X285557Y183178D01*
X285517Y183087D01*
X285473Y182997D01*
X285426Y182909D01*
X285376Y182823D01*
X285322Y182739D01*
X285265Y182657D01*
X285205Y182578D01*
X285141Y182500D01*
X285075Y182426D01*
X285006Y182354D01*
X284934Y182285D01*
X284860Y182219D01*
X284782Y182155D01*
X284703Y182095D01*
X284621Y182038D01*
X284537Y181984D01*
X284451Y181934D01*
X284363Y181887D01*
X284273Y181843D01*
X284182Y181803D01*
X284089Y181767D01*
X283995Y181734D01*
X283899Y181705D01*
X283803Y181680D01*
X283706Y181659D01*
X283607Y181641D01*
X283509Y181628D01*
X283409Y181618D01*
X283310Y181612D01*
X283210Y181610D01*
X247650Y184150D02*
X247650Y186690D01*
X247650Y184150D02*
X247652Y184050D01*
X247658Y183951D01*
X247668Y183851D01*
X247681Y183753D01*
X247699Y183654D01*
X247720Y183557D01*
X247745Y183461D01*
X247774Y183365D01*
X247807Y183271D01*
X247843Y183178D01*
X247883Y183087D01*
X247927Y182997D01*
X247974Y182909D01*
X248024Y182823D01*
X248078Y182739D01*
X248135Y182657D01*
X248195Y182578D01*
X248259Y182500D01*
X248325Y182426D01*
X248394Y182354D01*
X248466Y182285D01*
X248540Y182219D01*
X248618Y182155D01*
X248697Y182095D01*
X248779Y182038D01*
X248863Y181984D01*
X248949Y181934D01*
X249037Y181887D01*
X249127Y181843D01*
X249218Y181803D01*
X249311Y181767D01*
X249405Y181734D01*
X249501Y181705D01*
X249597Y181680D01*
X249694Y181659D01*
X249793Y181641D01*
X249891Y181628D01*
X249991Y181618D01*
X250090Y181612D01*
X250190Y181610D01*
X251170Y181610D01*
X281220Y181610D02*
X283210Y181610D01*
X297180Y186690D02*
X297338Y186692D01*
X297497Y186698D01*
X297655Y186708D01*
X297812Y186722D01*
X297970Y186739D01*
X298126Y186761D01*
X298283Y186786D01*
X298438Y186816D01*
X298593Y186849D01*
X298747Y186886D01*
X298900Y186927D01*
X299052Y186972D01*
X299202Y187021D01*
X299352Y187073D01*
X299500Y187129D01*
X299647Y187189D01*
X299792Y187252D01*
X299935Y187319D01*
X300077Y187389D01*
X300217Y187463D01*
X300355Y187541D01*
X300491Y187622D01*
X300625Y187706D01*
X300757Y187793D01*
X300887Y187884D01*
X301014Y187978D01*
X301139Y188075D01*
X301262Y188176D01*
X301382Y188279D01*
X301499Y188385D01*
X301614Y188494D01*
X301726Y188606D01*
X301835Y188721D01*
X301941Y188838D01*
X302044Y188958D01*
X302145Y189081D01*
X302242Y189206D01*
X302336Y189333D01*
X302427Y189463D01*
X302514Y189595D01*
X302598Y189729D01*
X302679Y189865D01*
X302757Y190003D01*
X302831Y190143D01*
X302901Y190285D01*
X302968Y190428D01*
X303031Y190573D01*
X303091Y190720D01*
X303147Y190868D01*
X303199Y191018D01*
X303248Y191168D01*
X303293Y191320D01*
X303334Y191473D01*
X303371Y191627D01*
X303404Y191782D01*
X303434Y191937D01*
X303459Y192094D01*
X303481Y192250D01*
X303498Y192408D01*
X303512Y192565D01*
X303522Y192723D01*
X303528Y192882D01*
X303530Y193040D01*
X303530Y340360D02*
X303528Y340518D01*
X303522Y340677D01*
X303512Y340835D01*
X303498Y340992D01*
X303481Y341150D01*
X303459Y341306D01*
X303434Y341463D01*
X303404Y341618D01*
X303371Y341773D01*
X303334Y341927D01*
X303293Y342080D01*
X303248Y342232D01*
X303199Y342382D01*
X303147Y342532D01*
X303091Y342680D01*
X303031Y342827D01*
X302968Y342972D01*
X302901Y343115D01*
X302831Y343257D01*
X302757Y343397D01*
X302679Y343535D01*
X302598Y343671D01*
X302514Y343805D01*
X302427Y343937D01*
X302336Y344067D01*
X302242Y344194D01*
X302145Y344319D01*
X302044Y344442D01*
X301941Y344562D01*
X301835Y344679D01*
X301726Y344794D01*
X301614Y344906D01*
X301499Y345015D01*
X301382Y345121D01*
X301262Y345224D01*
X301139Y345325D01*
X301014Y345422D01*
X300887Y345516D01*
X300757Y345607D01*
X300625Y345694D01*
X300491Y345778D01*
X300355Y345859D01*
X300217Y345937D01*
X300077Y346011D01*
X299935Y346081D01*
X299792Y346148D01*
X299647Y346211D01*
X299500Y346271D01*
X299352Y346327D01*
X299202Y346379D01*
X299052Y346428D01*
X298900Y346473D01*
X298747Y346514D01*
X298593Y346551D01*
X298438Y346584D01*
X298283Y346614D01*
X298126Y346639D01*
X297970Y346661D01*
X297812Y346678D01*
X297655Y346692D01*
X297497Y346702D01*
X297338Y346708D01*
X297180Y346710D01*
X177800Y266700D02*
X177815Y267947D01*
X177861Y269193D01*
X177938Y270437D01*
X178045Y271679D01*
X178182Y272918D01*
X178350Y274154D01*
X178548Y275385D01*
X178776Y276611D01*
X179034Y277830D01*
X179322Y279043D01*
X179640Y280249D01*
X179987Y281446D01*
X180364Y282635D01*
X180770Y283814D01*
X181204Y284983D01*
X181667Y286140D01*
X182158Y287286D01*
X182677Y288420D01*
X183224Y289540D01*
X183798Y290647D01*
X184400Y291739D01*
X185027Y292816D01*
X185681Y293878D01*
X186361Y294923D01*
X187067Y295951D01*
X187797Y296962D01*
X188552Y297954D01*
X189331Y298927D01*
X190134Y299881D01*
X190960Y300815D01*
X191808Y301729D01*
X192679Y302621D01*
X193571Y303492D01*
X194485Y304340D01*
X195419Y305166D01*
X196373Y305969D01*
X197346Y306748D01*
X198338Y307503D01*
X199349Y308233D01*
X200377Y308939D01*
X201422Y309619D01*
X202484Y310273D01*
X203561Y310900D01*
X204653Y311502D01*
X205760Y312076D01*
X206880Y312623D01*
X208014Y313142D01*
X209160Y313633D01*
X210317Y314096D01*
X211486Y314530D01*
X212665Y314936D01*
X213854Y315313D01*
X215051Y315660D01*
X216257Y315978D01*
X217470Y316266D01*
X218689Y316524D01*
X219915Y316752D01*
X221146Y316950D01*
X222382Y317118D01*
X223621Y317255D01*
X224863Y317362D01*
X226107Y317439D01*
X227353Y317485D01*
X228600Y317500D01*
X229847Y317485D01*
X231093Y317439D01*
X232337Y317362D01*
X233579Y317255D01*
X234818Y317118D01*
X236054Y316950D01*
X237285Y316752D01*
X238511Y316524D01*
X239730Y316266D01*
X240943Y315978D01*
X242149Y315660D01*
X243346Y315313D01*
X244535Y314936D01*
X245714Y314530D01*
X246883Y314096D01*
X248040Y313633D01*
X249186Y313142D01*
X250320Y312623D01*
X251440Y312076D01*
X252547Y311502D01*
X253639Y310900D01*
X254716Y310273D01*
X255778Y309619D01*
X256823Y308939D01*
X257851Y308233D01*
X258862Y307503D01*
X259854Y306748D01*
X260827Y305969D01*
X261781Y305166D01*
X262715Y304340D01*
X263629Y303492D01*
X264521Y302621D01*
X265392Y301729D01*
X266240Y300815D01*
X267066Y299881D01*
X267869Y298927D01*
X268648Y297954D01*
X269403Y296962D01*
X270133Y295951D01*
X270839Y294923D01*
X271519Y293878D01*
X272173Y292816D01*
X272800Y291739D01*
X273402Y290647D01*
X273976Y289540D01*
X274523Y288420D01*
X275042Y287286D01*
X275533Y286140D01*
X275996Y284983D01*
X276430Y283814D01*
X276836Y282635D01*
X277213Y281446D01*
X277560Y280249D01*
X277878Y279043D01*
X278166Y277830D01*
X278424Y276611D01*
X278652Y275385D01*
X278850Y274154D01*
X279018Y272918D01*
X279155Y271679D01*
X279262Y270437D01*
X279339Y269193D01*
X279385Y267947D01*
X279400Y266700D01*
X279385Y265453D01*
X279339Y264207D01*
X279262Y262963D01*
X279155Y261721D01*
X279018Y260482D01*
X278850Y259246D01*
X278652Y258015D01*
X278424Y256789D01*
X278166Y255570D01*
X277878Y254357D01*
X277560Y253151D01*
X277213Y251954D01*
X276836Y250765D01*
X276430Y249586D01*
X275996Y248417D01*
X275533Y247260D01*
X275042Y246114D01*
X274523Y244980D01*
X273976Y243860D01*
X273402Y242753D01*
X272800Y241661D01*
X272173Y240584D01*
X271519Y239522D01*
X270839Y238477D01*
X270133Y237449D01*
X269403Y236438D01*
X268648Y235446D01*
X267869Y234473D01*
X267066Y233519D01*
X266240Y232585D01*
X265392Y231671D01*
X264521Y230779D01*
X263629Y229908D01*
X262715Y229060D01*
X261781Y228234D01*
X260827Y227431D01*
X259854Y226652D01*
X258862Y225897D01*
X257851Y225167D01*
X256823Y224461D01*
X255778Y223781D01*
X254716Y223127D01*
X253639Y222500D01*
X252547Y221898D01*
X251440Y221324D01*
X250320Y220777D01*
X249186Y220258D01*
X248040Y219767D01*
X246883Y219304D01*
X245714Y218870D01*
X244535Y218464D01*
X243346Y218087D01*
X242149Y217740D01*
X240943Y217422D01*
X239730Y217134D01*
X238511Y216876D01*
X237285Y216648D01*
X236054Y216450D01*
X234818Y216282D01*
X233579Y216145D01*
X232337Y216038D01*
X231093Y215961D01*
X229847Y215915D01*
X228600Y215900D01*
X227353Y215915D01*
X226107Y215961D01*
X224863Y216038D01*
X223621Y216145D01*
X222382Y216282D01*
X221146Y216450D01*
X219915Y216648D01*
X218689Y216876D01*
X217470Y217134D01*
X216257Y217422D01*
X215051Y217740D01*
X213854Y218087D01*
X212665Y218464D01*
X211486Y218870D01*
X210317Y219304D01*
X209160Y219767D01*
X208014Y220258D01*
X206880Y220777D01*
X205760Y221324D01*
X204653Y221898D01*
X203561Y222500D01*
X202484Y223127D01*
X201422Y223781D01*
X200377Y224461D01*
X199349Y225167D01*
X198338Y225897D01*
X197346Y226652D01*
X196373Y227431D01*
X195419Y228234D01*
X194485Y229060D01*
X193571Y229908D01*
X192679Y230779D01*
X191808Y231671D01*
X190960Y232585D01*
X190134Y233519D01*
X189331Y234473D01*
X188552Y235446D01*
X187797Y236438D01*
X187067Y237449D01*
X186361Y238477D01*
X185681Y239522D01*
X185027Y240584D01*
X184400Y241661D01*
X183798Y242753D01*
X183224Y243860D01*
X182677Y244980D01*
X182158Y246114D01*
X181667Y247260D01*
X181204Y248417D01*
X180770Y249586D01*
X180364Y250765D01*
X179987Y251954D01*
X179640Y253151D01*
X179322Y254357D01*
X179034Y255570D01*
X178776Y256789D01*
X178548Y258015D01*
X178350Y259246D01*
X178182Y260482D01*
X178045Y261721D01*
X177938Y262963D01*
X177861Y264207D01*
X177815Y265453D01*
X177800Y266700D01*
X215900Y266700D02*
X215904Y267012D01*
X215915Y267323D01*
X215934Y267634D01*
X215961Y267945D01*
X215996Y268255D01*
X216037Y268563D01*
X216087Y268871D01*
X216144Y269178D01*
X216209Y269483D01*
X216281Y269786D01*
X216360Y270087D01*
X216447Y270387D01*
X216541Y270684D01*
X216642Y270979D01*
X216751Y271271D01*
X216867Y271560D01*
X216990Y271847D01*
X217119Y272130D01*
X217256Y272410D01*
X217400Y272687D01*
X217550Y272960D01*
X217707Y273229D01*
X217870Y273494D01*
X218040Y273756D01*
X218217Y274013D01*
X218399Y274265D01*
X218588Y274513D01*
X218783Y274757D01*
X218983Y274995D01*
X219190Y275229D01*
X219402Y275457D01*
X219620Y275680D01*
X219843Y275898D01*
X220071Y276110D01*
X220305Y276317D01*
X220543Y276517D01*
X220787Y276712D01*
X221035Y276901D01*
X221287Y277083D01*
X221544Y277260D01*
X221806Y277430D01*
X222071Y277593D01*
X222340Y277750D01*
X222613Y277900D01*
X222890Y278044D01*
X223170Y278181D01*
X223453Y278310D01*
X223740Y278433D01*
X224029Y278549D01*
X224321Y278658D01*
X224616Y278759D01*
X224913Y278853D01*
X225213Y278940D01*
X225514Y279019D01*
X225817Y279091D01*
X226122Y279156D01*
X226429Y279213D01*
X226737Y279263D01*
X227045Y279304D01*
X227355Y279339D01*
X227666Y279366D01*
X227977Y279385D01*
X228288Y279396D01*
X228600Y279400D01*
X228912Y279396D01*
X229223Y279385D01*
X229534Y279366D01*
X229845Y279339D01*
X230155Y279304D01*
X230463Y279263D01*
X230771Y279213D01*
X231078Y279156D01*
X231383Y279091D01*
X231686Y279019D01*
X231987Y278940D01*
X232287Y278853D01*
X232584Y278759D01*
X232879Y278658D01*
X233171Y278549D01*
X233460Y278433D01*
X233747Y278310D01*
X234030Y278181D01*
X234310Y278044D01*
X234587Y277900D01*
X234860Y277750D01*
X235129Y277593D01*
X235394Y277430D01*
X235656Y277260D01*
X235913Y277083D01*
X236165Y276901D01*
X236413Y276712D01*
X236657Y276517D01*
X236895Y276317D01*
X237129Y276110D01*
X237357Y275898D01*
X237580Y275680D01*
X237798Y275457D01*
X238010Y275229D01*
X238217Y274995D01*
X238417Y274757D01*
X238612Y274513D01*
X238801Y274265D01*
X238983Y274013D01*
X239160Y273756D01*
X239330Y273494D01*
X239493Y273229D01*
X239650Y272960D01*
X239800Y272687D01*
X239944Y272410D01*
X240081Y272130D01*
X240210Y271847D01*
X240333Y271560D01*
X240449Y271271D01*
X240558Y270979D01*
X240659Y270684D01*
X240753Y270387D01*
X240840Y270087D01*
X240919Y269786D01*
X240991Y269483D01*
X241056Y269178D01*
X241113Y268871D01*
X241163Y268563D01*
X241204Y268255D01*
X241239Y267945D01*
X241266Y267634D01*
X241285Y267323D01*
X241296Y267012D01*
X241300Y266700D01*
X241296Y266388D01*
X241285Y266077D01*
X241266Y265766D01*
X241239Y265455D01*
X241204Y265145D01*
X241163Y264837D01*
X241113Y264529D01*
X241056Y264222D01*
X240991Y263917D01*
X240919Y263614D01*
X240840Y263313D01*
X240753Y263013D01*
X240659Y262716D01*
X240558Y262421D01*
X240449Y262129D01*
X240333Y261840D01*
X240210Y261553D01*
X240081Y261270D01*
X239944Y260990D01*
X239800Y260713D01*
X239650Y260440D01*
X239493Y260171D01*
X239330Y259906D01*
X239160Y259644D01*
X238983Y259387D01*
X238801Y259135D01*
X238612Y258887D01*
X238417Y258643D01*
X238217Y258405D01*
X238010Y258171D01*
X237798Y257943D01*
X237580Y257720D01*
X237357Y257502D01*
X237129Y257290D01*
X236895Y257083D01*
X236657Y256883D01*
X236413Y256688D01*
X236165Y256499D01*
X235913Y256317D01*
X235656Y256140D01*
X235394Y255970D01*
X235129Y255807D01*
X234860Y255650D01*
X234587Y255500D01*
X234310Y255356D01*
X234030Y255219D01*
X233747Y255090D01*
X233460Y254967D01*
X233171Y254851D01*
X232879Y254742D01*
X232584Y254641D01*
X232287Y254547D01*
X231987Y254460D01*
X231686Y254381D01*
X231383Y254309D01*
X231078Y254244D01*
X230771Y254187D01*
X230463Y254137D01*
X230155Y254096D01*
X229845Y254061D01*
X229534Y254034D01*
X229223Y254015D01*
X228912Y254004D01*
X228600Y254000D01*
X228288Y254004D01*
X227977Y254015D01*
X227666Y254034D01*
X227355Y254061D01*
X227045Y254096D01*
X226737Y254137D01*
X226429Y254187D01*
X226122Y254244D01*
X225817Y254309D01*
X225514Y254381D01*
X225213Y254460D01*
X224913Y254547D01*
X224616Y254641D01*
X224321Y254742D01*
X224029Y254851D01*
X223740Y254967D01*
X223453Y255090D01*
X223170Y255219D01*
X222890Y255356D01*
X222613Y255500D01*
X222340Y255650D01*
X222071Y255807D01*
X221806Y255970D01*
X221544Y256140D01*
X221287Y256317D01*
X221035Y256499D01*
X220787Y256688D01*
X220543Y256883D01*
X220305Y257083D01*
X220071Y257290D01*
X219843Y257502D01*
X219620Y257720D01*
X219402Y257943D01*
X219190Y258171D01*
X218983Y258405D01*
X218783Y258643D01*
X218588Y258887D01*
X218399Y259135D01*
X218217Y259387D01*
X218040Y259644D01*
X217870Y259906D01*
X217707Y260171D01*
X217550Y260440D01*
X217400Y260713D01*
X217256Y260990D01*
X217119Y261270D01*
X216990Y261553D01*
X216867Y261840D01*
X216751Y262129D01*
X216642Y262421D01*
X216541Y262716D01*
X216447Y263013D01*
X216360Y263313D01*
X216281Y263614D01*
X216209Y263917D01*
X216144Y264222D01*
X216087Y264529D01*
X216037Y264837D01*
X215996Y265145D01*
X215961Y265455D01*
X215934Y265766D01*
X215915Y266077D01*
X215904Y266388D01*
X215900Y266700D01*
D11*
X170180Y332105D02*
X167005Y332105D01*
X170180Y332105D02*
X170291Y332103D01*
X170401Y332097D01*
X170512Y332088D01*
X170622Y332074D01*
X170731Y332057D01*
X170840Y332036D01*
X170948Y332011D01*
X171055Y331982D01*
X171161Y331950D01*
X171266Y331914D01*
X171369Y331874D01*
X171471Y331831D01*
X171572Y331784D01*
X171671Y331733D01*
X171768Y331680D01*
X171862Y331623D01*
X171955Y331562D01*
X172046Y331499D01*
X172135Y331432D01*
X172221Y331362D01*
X172304Y331289D01*
X172386Y331214D01*
X172464Y331136D01*
X172539Y331054D01*
X172612Y330971D01*
X172682Y330885D01*
X172749Y330796D01*
X172812Y330705D01*
X172873Y330612D01*
X172930Y330517D01*
X172983Y330421D01*
X173034Y330322D01*
X173081Y330221D01*
X173124Y330119D01*
X173164Y330016D01*
X173200Y329911D01*
X173232Y329805D01*
X173261Y329698D01*
X173286Y329590D01*
X173307Y329481D01*
X173324Y329372D01*
X173338Y329262D01*
X173347Y329151D01*
X173353Y329041D01*
X173355Y328930D01*
X173353Y328819D01*
X173347Y328709D01*
X173338Y328598D01*
X173324Y328488D01*
X173307Y328379D01*
X173286Y328270D01*
X173261Y328162D01*
X173232Y328055D01*
X173200Y327949D01*
X173164Y327844D01*
X173124Y327741D01*
X173081Y327639D01*
X173034Y327538D01*
X172983Y327439D01*
X172930Y327342D01*
X172873Y327248D01*
X172812Y327155D01*
X172749Y327064D01*
X172682Y326975D01*
X172612Y326889D01*
X172539Y326806D01*
X172464Y326724D01*
X172386Y326646D01*
X172304Y326571D01*
X172221Y326498D01*
X172135Y326428D01*
X172046Y326361D01*
X171955Y326298D01*
X171862Y326237D01*
X171767Y326180D01*
X171671Y326127D01*
X171572Y326076D01*
X171471Y326029D01*
X171369Y325986D01*
X171266Y325946D01*
X171161Y325910D01*
X171055Y325878D01*
X170948Y325849D01*
X170840Y325824D01*
X170731Y325803D01*
X170622Y325786D01*
X170512Y325772D01*
X170401Y325763D01*
X170291Y325757D01*
X170180Y325755D01*
X167005Y325755D01*
X167005Y337185D01*
X170180Y337185D01*
X170280Y337183D01*
X170379Y337177D01*
X170479Y337167D01*
X170577Y337154D01*
X170676Y337136D01*
X170773Y337115D01*
X170869Y337090D01*
X170965Y337061D01*
X171059Y337028D01*
X171152Y336992D01*
X171243Y336952D01*
X171333Y336908D01*
X171421Y336861D01*
X171507Y336811D01*
X171591Y336757D01*
X171673Y336700D01*
X171752Y336640D01*
X171830Y336576D01*
X171904Y336510D01*
X171976Y336441D01*
X172045Y336369D01*
X172111Y336295D01*
X172175Y336217D01*
X172235Y336138D01*
X172292Y336056D01*
X172346Y335972D01*
X172396Y335886D01*
X172443Y335798D01*
X172487Y335708D01*
X172527Y335617D01*
X172563Y335524D01*
X172596Y335430D01*
X172625Y335334D01*
X172650Y335238D01*
X172671Y335141D01*
X172689Y335042D01*
X172702Y334944D01*
X172712Y334844D01*
X172718Y334745D01*
X172720Y334645D01*
X172718Y334545D01*
X172712Y334446D01*
X172702Y334346D01*
X172689Y334248D01*
X172671Y334149D01*
X172650Y334052D01*
X172625Y333956D01*
X172596Y333860D01*
X172563Y333766D01*
X172527Y333673D01*
X172487Y333582D01*
X172443Y333492D01*
X172396Y333404D01*
X172346Y333318D01*
X172292Y333234D01*
X172235Y333152D01*
X172175Y333073D01*
X172111Y332995D01*
X172045Y332921D01*
X171976Y332849D01*
X171904Y332780D01*
X171830Y332714D01*
X171752Y332650D01*
X171673Y332590D01*
X171591Y332533D01*
X171507Y332479D01*
X171421Y332429D01*
X171333Y332382D01*
X171243Y332338D01*
X171152Y332298D01*
X171059Y332262D01*
X170965Y332229D01*
X170869Y332200D01*
X170773Y332175D01*
X170676Y332154D01*
X170577Y332136D01*
X170479Y332123D01*
X170379Y332113D01*
X170280Y332107D01*
X170180Y332105D01*
X178245Y328930D02*
X178245Y337185D01*
X178245Y328930D02*
X178247Y328819D01*
X178253Y328709D01*
X178262Y328598D01*
X178276Y328488D01*
X178293Y328379D01*
X178314Y328270D01*
X178339Y328162D01*
X178368Y328055D01*
X178400Y327949D01*
X178436Y327844D01*
X178476Y327741D01*
X178519Y327639D01*
X178566Y327538D01*
X178617Y327439D01*
X178670Y327343D01*
X178727Y327248D01*
X178788Y327155D01*
X178851Y327064D01*
X178918Y326975D01*
X178988Y326889D01*
X179061Y326806D01*
X179136Y326724D01*
X179214Y326646D01*
X179296Y326571D01*
X179379Y326498D01*
X179465Y326428D01*
X179554Y326361D01*
X179645Y326298D01*
X179738Y326237D01*
X179833Y326180D01*
X179929Y326127D01*
X180028Y326076D01*
X180129Y326029D01*
X180231Y325986D01*
X180334Y325946D01*
X180439Y325910D01*
X180545Y325878D01*
X180652Y325849D01*
X180760Y325824D01*
X180869Y325803D01*
X180978Y325786D01*
X181088Y325772D01*
X181199Y325763D01*
X181309Y325757D01*
X181420Y325755D01*
X181531Y325757D01*
X181641Y325763D01*
X181752Y325772D01*
X181862Y325786D01*
X181971Y325803D01*
X182080Y325824D01*
X182188Y325849D01*
X182295Y325878D01*
X182401Y325910D01*
X182506Y325946D01*
X182609Y325986D01*
X182711Y326029D01*
X182812Y326076D01*
X182911Y326127D01*
X183007Y326180D01*
X183102Y326237D01*
X183195Y326298D01*
X183286Y326361D01*
X183375Y326428D01*
X183461Y326498D01*
X183544Y326571D01*
X183626Y326646D01*
X183704Y326724D01*
X183779Y326806D01*
X183852Y326889D01*
X183922Y326975D01*
X183989Y327064D01*
X184052Y327155D01*
X184113Y327248D01*
X184170Y327342D01*
X184223Y327439D01*
X184274Y327538D01*
X184321Y327639D01*
X184364Y327741D01*
X184404Y327844D01*
X184440Y327949D01*
X184472Y328055D01*
X184501Y328162D01*
X184526Y328270D01*
X184547Y328379D01*
X184564Y328488D01*
X184578Y328598D01*
X184587Y328709D01*
X184593Y328819D01*
X184595Y328930D01*
X184595Y337185D01*
X189675Y337185D02*
X196025Y337185D01*
X189675Y325755D01*
X196025Y325755D01*
X200724Y334645D02*
X203899Y337185D01*
X203899Y325755D01*
X200724Y325755D02*
X207074Y325755D01*
D10*
X44450Y304800D02*
X31750Y304800D01*
X44450Y304800D02*
X50800Y298450D01*
X50800Y285750D01*
X44450Y279400D01*
X25400Y285750D02*
X25400Y298450D01*
X31750Y304800D01*
X25400Y285750D02*
X31750Y279400D01*
X44450Y279400D01*
X50800Y298450D02*
X57150Y304800D01*
X69850Y304800D01*
X76200Y298450D01*
X76200Y285750D01*
X69850Y279400D01*
X57150Y279400D01*
X50800Y285750D01*
X75901Y466058D02*
X75682Y466358D01*
X75455Y466652D01*
X75221Y466940D01*
X74980Y467223D01*
X74733Y467500D01*
X74478Y467771D01*
X74217Y468035D01*
X73950Y468293D01*
X73677Y468544D01*
X73397Y468789D01*
X73112Y469027D01*
X72821Y469257D01*
X72524Y469481D01*
X72222Y469697D01*
X71915Y469906D01*
X71603Y470107D01*
X71286Y470301D01*
X70964Y470487D01*
X70638Y470665D01*
X70308Y470835D01*
X69974Y470997D01*
X69636Y471150D01*
X69294Y471296D01*
X68949Y471433D01*
X68600Y471561D01*
X68249Y471681D01*
X67894Y471793D01*
X67537Y471895D01*
X67178Y471990D01*
X66817Y472075D01*
X66453Y472151D01*
X66088Y472219D01*
X65721Y472277D01*
X65353Y472327D01*
X64984Y472368D01*
X64614Y472399D01*
X64243Y472422D01*
X63872Y472435D01*
X63500Y472440D01*
X63128Y472435D01*
X62757Y472422D01*
X62385Y472399D01*
X62015Y472367D01*
X61645Y472327D01*
X61277Y472277D01*
X60909Y472218D01*
X60544Y472151D01*
X60180Y472074D01*
X59818Y471988D01*
X59458Y471894D01*
X59101Y471791D01*
X58746Y471680D01*
X58394Y471559D01*
X58045Y471430D01*
X57700Y471293D01*
X57358Y471147D01*
X57019Y470993D01*
X56684Y470831D01*
X56354Y470661D01*
X56028Y470482D01*
X55706Y470296D01*
X55388Y470102D01*
X55076Y469900D01*
X54769Y469691D01*
X54467Y469474D01*
X54170Y469250D01*
X53878Y469019D01*
X53593Y468781D01*
X53313Y468535D01*
X53040Y468283D01*
X52772Y468025D01*
X52512Y467760D01*
X52257Y467489D01*
X52009Y467211D01*
X51769Y466928D01*
X51535Y466639D01*
X51308Y466344D01*
X63500Y441960D02*
X63865Y441964D01*
X64230Y441977D01*
X64594Y441999D01*
X64957Y442030D01*
X65320Y442069D01*
X65682Y442117D01*
X66042Y442174D01*
X66401Y442239D01*
X66759Y442312D01*
X67114Y442395D01*
X67467Y442485D01*
X67819Y442585D01*
X68167Y442692D01*
X68513Y442808D01*
X68856Y442932D01*
X69196Y443065D01*
X69533Y443205D01*
X69866Y443353D01*
X70196Y443510D01*
X70522Y443674D01*
X70844Y443846D01*
X71161Y444026D01*
X71474Y444213D01*
X71783Y444407D01*
X72087Y444609D01*
X72386Y444819D01*
X72680Y445035D01*
X72968Y445258D01*
X73251Y445488D01*
X73529Y445725D01*
X73801Y445968D01*
X74067Y446218D01*
X74327Y446474D01*
X74580Y446737D01*
X74828Y447005D01*
X75068Y447279D01*
X75303Y447559D01*
X75530Y447844D01*
X63500Y441960D02*
X63135Y441964D01*
X62770Y441977D01*
X62406Y441999D01*
X62043Y442030D01*
X61680Y442069D01*
X61318Y442117D01*
X60958Y442174D01*
X60599Y442239D01*
X60241Y442312D01*
X59886Y442395D01*
X59533Y442485D01*
X59181Y442585D01*
X58833Y442692D01*
X58487Y442808D01*
X58144Y442932D01*
X57804Y443065D01*
X57467Y443205D01*
X57134Y443353D01*
X56804Y443510D01*
X56478Y443674D01*
X56156Y443846D01*
X55839Y444026D01*
X55526Y444213D01*
X55217Y444407D01*
X54913Y444609D01*
X54614Y444819D01*
X54320Y445035D01*
X54032Y445258D01*
X53749Y445488D01*
X53471Y445725D01*
X53199Y445968D01*
X52933Y446218D01*
X52673Y446474D01*
X52420Y446737D01*
X52172Y447005D01*
X51932Y447279D01*
X51697Y447559D01*
X51470Y447844D01*
D12*
X63500Y477520D02*
X63994Y477514D01*
X64488Y477496D01*
X64982Y477466D01*
X65475Y477424D01*
X65966Y477370D01*
X66456Y477304D01*
X66944Y477226D01*
X67431Y477136D01*
X67915Y477035D01*
X68396Y476921D01*
X68874Y476796D01*
X69350Y476660D01*
X69821Y476512D01*
X70289Y476352D01*
X70753Y476181D01*
X71213Y475999D01*
X71668Y475806D01*
X72119Y475602D01*
X72564Y475387D01*
X73004Y475161D01*
X73438Y474924D01*
X73866Y474677D01*
X74288Y474420D01*
X74704Y474152D01*
X75113Y473874D01*
X75515Y473587D01*
X75911Y473290D01*
X76298Y472983D01*
X76679Y472667D01*
X77051Y472342D01*
X77416Y472007D01*
X77772Y471664D01*
X78119Y471313D01*
X78459Y470953D01*
X78789Y470585D01*
X79110Y470209D01*
X63500Y477520D02*
X63012Y477514D01*
X62525Y477497D01*
X62038Y477467D01*
X61551Y477426D01*
X61066Y477374D01*
X60582Y477309D01*
X60100Y477233D01*
X59620Y477146D01*
X59142Y477047D01*
X58667Y476937D01*
X58194Y476815D01*
X57725Y476682D01*
X57258Y476537D01*
X56796Y476382D01*
X56337Y476215D01*
X55882Y476038D01*
X55432Y475849D01*
X54987Y475650D01*
X54546Y475440D01*
X54110Y475220D01*
X53680Y474989D01*
X53256Y474748D01*
X52838Y474497D01*
X52425Y474236D01*
X52019Y473965D01*
X51620Y473685D01*
X51227Y473395D01*
X50842Y473095D01*
X50464Y472786D01*
X50093Y472469D01*
X49731Y472142D01*
X49376Y471807D01*
X49029Y471464D01*
X48691Y471112D01*
X48361Y470753D01*
X48040Y470385D01*
X47727Y470010D01*
X47424Y469627D01*
X47130Y469238D01*
X46846Y468841D01*
X46571Y468438D01*
X46306Y468028D01*
X46051Y467612D01*
X45806Y467190D01*
X45571Y466762D01*
X63500Y436880D02*
X63990Y436886D01*
X64480Y436904D01*
X64969Y436933D01*
X65458Y436975D01*
X65945Y437028D01*
X66431Y437092D01*
X66915Y437169D01*
X67397Y437257D01*
X67877Y437357D01*
X68355Y437468D01*
X68829Y437591D01*
X69301Y437726D01*
X69769Y437871D01*
X70233Y438028D01*
X70694Y438196D01*
X71150Y438375D01*
X71602Y438565D01*
X72049Y438766D01*
X72491Y438978D01*
X72928Y439200D01*
X73360Y439432D01*
X73786Y439675D01*
X74205Y439929D01*
X74619Y440192D01*
X75026Y440465D01*
X75426Y440748D01*
X75820Y441041D01*
X76206Y441342D01*
X76585Y441654D01*
X76956Y441974D01*
X77319Y442303D01*
X77675Y442640D01*
X78022Y442987D01*
X78360Y443341D01*
X78690Y443704D01*
X79012Y444074D01*
X63500Y436880D02*
X63003Y436886D01*
X62506Y436904D01*
X62010Y436935D01*
X61515Y436977D01*
X61021Y437032D01*
X60528Y437098D01*
X60038Y437177D01*
X59549Y437268D01*
X59063Y437370D01*
X58579Y437485D01*
X58099Y437611D01*
X57621Y437749D01*
X57147Y437898D01*
X56677Y438059D01*
X56211Y438232D01*
X55749Y438416D01*
X55292Y438611D01*
X54840Y438817D01*
X54393Y439034D01*
X53952Y439263D01*
X53516Y439501D01*
X53086Y439751D01*
X52663Y440011D01*
X52245Y440281D01*
X51835Y440561D01*
X51432Y440851D01*
X51035Y441151D01*
X50647Y441461D01*
X50266Y441780D01*
X49893Y442108D01*
X49528Y442445D01*
X49171Y442791D01*
X48823Y443146D01*
X48484Y443509D01*
X48153Y443880D01*
X47832Y444260D01*
X47520Y444647D01*
X47218Y445041D01*
X46926Y445443D01*
X46643Y445852D01*
X46371Y446267D01*
X46108Y446690D01*
X45857Y447118D01*
D11*
X45085Y487045D02*
X45085Y498475D01*
X45085Y487045D02*
X50165Y487045D01*
X54991Y487045D02*
X60071Y487045D01*
X54991Y487045D02*
X54991Y498475D01*
X60071Y498475D01*
X58801Y493395D02*
X54991Y493395D01*
X64872Y498475D02*
X64872Y487045D01*
X64872Y498475D02*
X68047Y498475D01*
X68158Y498473D01*
X68268Y498467D01*
X68379Y498458D01*
X68489Y498444D01*
X68598Y498427D01*
X68707Y498406D01*
X68815Y498381D01*
X68922Y498352D01*
X69028Y498320D01*
X69133Y498284D01*
X69236Y498244D01*
X69338Y498201D01*
X69439Y498154D01*
X69538Y498103D01*
X69635Y498050D01*
X69729Y497993D01*
X69822Y497932D01*
X69913Y497869D01*
X70002Y497802D01*
X70088Y497732D01*
X70171Y497659D01*
X70253Y497584D01*
X70331Y497506D01*
X70406Y497424D01*
X70479Y497341D01*
X70549Y497255D01*
X70616Y497166D01*
X70679Y497075D01*
X70740Y496982D01*
X70797Y496888D01*
X70850Y496791D01*
X70901Y496692D01*
X70948Y496591D01*
X70991Y496489D01*
X71031Y496386D01*
X71067Y496281D01*
X71099Y496175D01*
X71128Y496068D01*
X71153Y495960D01*
X71174Y495851D01*
X71191Y495742D01*
X71205Y495632D01*
X71214Y495521D01*
X71220Y495411D01*
X71222Y495300D01*
X71222Y490220D01*
X71220Y490109D01*
X71214Y489999D01*
X71205Y489888D01*
X71191Y489778D01*
X71174Y489669D01*
X71153Y489560D01*
X71128Y489452D01*
X71099Y489345D01*
X71067Y489239D01*
X71031Y489134D01*
X70991Y489031D01*
X70948Y488929D01*
X70901Y488828D01*
X70850Y488729D01*
X70797Y488632D01*
X70740Y488538D01*
X70679Y488445D01*
X70616Y488354D01*
X70549Y488265D01*
X70479Y488179D01*
X70406Y488096D01*
X70331Y488014D01*
X70253Y487936D01*
X70171Y487861D01*
X70088Y487788D01*
X70002Y487718D01*
X69913Y487651D01*
X69822Y487588D01*
X69729Y487527D01*
X69634Y487470D01*
X69538Y487417D01*
X69439Y487366D01*
X69338Y487319D01*
X69236Y487276D01*
X69133Y487236D01*
X69028Y487200D01*
X68922Y487168D01*
X68815Y487139D01*
X68707Y487114D01*
X68598Y487093D01*
X68489Y487076D01*
X68379Y487062D01*
X68268Y487053D01*
X68158Y487047D01*
X68047Y487045D01*
X64872Y487045D01*
X76683Y495935D02*
X79858Y498475D01*
X79858Y487045D01*
X76683Y487045D02*
X83033Y487045D01*
D10*
X139700Y472440D02*
X140072Y472435D01*
X140443Y472422D01*
X140814Y472399D01*
X141184Y472368D01*
X141553Y472327D01*
X141921Y472277D01*
X142288Y472219D01*
X142653Y472151D01*
X143017Y472075D01*
X143378Y471990D01*
X143737Y471895D01*
X144094Y471793D01*
X144449Y471681D01*
X144800Y471561D01*
X145149Y471433D01*
X145494Y471296D01*
X145836Y471150D01*
X146174Y470997D01*
X146508Y470835D01*
X146838Y470665D01*
X147164Y470487D01*
X147486Y470301D01*
X147803Y470107D01*
X148115Y469906D01*
X148422Y469697D01*
X148724Y469481D01*
X149021Y469257D01*
X149312Y469027D01*
X149597Y468789D01*
X149877Y468544D01*
X150150Y468293D01*
X150417Y468035D01*
X150678Y467771D01*
X150933Y467500D01*
X151180Y467223D01*
X151421Y466940D01*
X151655Y466652D01*
X151882Y466358D01*
X152101Y466058D01*
X139700Y472440D02*
X139328Y472435D01*
X138957Y472422D01*
X138585Y472399D01*
X138215Y472367D01*
X137845Y472327D01*
X137477Y472277D01*
X137109Y472218D01*
X136744Y472151D01*
X136380Y472074D01*
X136018Y471988D01*
X135658Y471894D01*
X135301Y471791D01*
X134946Y471680D01*
X134594Y471559D01*
X134245Y471430D01*
X133900Y471293D01*
X133558Y471147D01*
X133219Y470993D01*
X132884Y470831D01*
X132554Y470661D01*
X132228Y470482D01*
X131906Y470296D01*
X131588Y470102D01*
X131276Y469900D01*
X130969Y469691D01*
X130667Y469474D01*
X130370Y469250D01*
X130078Y469019D01*
X129793Y468781D01*
X129513Y468535D01*
X129240Y468283D01*
X128972Y468025D01*
X128712Y467760D01*
X128457Y467489D01*
X128209Y467211D01*
X127969Y466928D01*
X127735Y466639D01*
X127508Y466344D01*
X139700Y441960D02*
X140065Y441964D01*
X140430Y441977D01*
X140794Y441999D01*
X141157Y442030D01*
X141520Y442069D01*
X141882Y442117D01*
X142242Y442174D01*
X142601Y442239D01*
X142959Y442312D01*
X143314Y442395D01*
X143667Y442485D01*
X144019Y442585D01*
X144367Y442692D01*
X144713Y442808D01*
X145056Y442932D01*
X145396Y443065D01*
X145733Y443205D01*
X146066Y443353D01*
X146396Y443510D01*
X146722Y443674D01*
X147044Y443846D01*
X147361Y444026D01*
X147674Y444213D01*
X147983Y444407D01*
X148287Y444609D01*
X148586Y444819D01*
X148880Y445035D01*
X149168Y445258D01*
X149451Y445488D01*
X149729Y445725D01*
X150001Y445968D01*
X150267Y446218D01*
X150527Y446474D01*
X150780Y446737D01*
X151028Y447005D01*
X151268Y447279D01*
X151503Y447559D01*
X151730Y447844D01*
X139700Y441960D02*
X139335Y441964D01*
X138970Y441977D01*
X138606Y441999D01*
X138243Y442030D01*
X137880Y442069D01*
X137518Y442117D01*
X137158Y442174D01*
X136799Y442239D01*
X136441Y442312D01*
X136086Y442395D01*
X135733Y442485D01*
X135381Y442585D01*
X135033Y442692D01*
X134687Y442808D01*
X134344Y442932D01*
X134004Y443065D01*
X133667Y443205D01*
X133334Y443353D01*
X133004Y443510D01*
X132678Y443674D01*
X132356Y443846D01*
X132039Y444026D01*
X131726Y444213D01*
X131417Y444407D01*
X131113Y444609D01*
X130814Y444819D01*
X130520Y445035D01*
X130232Y445258D01*
X129949Y445488D01*
X129671Y445725D01*
X129399Y445968D01*
X129133Y446218D01*
X128873Y446474D01*
X128620Y446737D01*
X128372Y447005D01*
X128132Y447279D01*
X127897Y447559D01*
X127670Y447844D01*
D12*
X139700Y477520D02*
X140194Y477514D01*
X140688Y477496D01*
X141182Y477466D01*
X141675Y477424D01*
X142166Y477370D01*
X142656Y477304D01*
X143144Y477226D01*
X143631Y477136D01*
X144115Y477035D01*
X144596Y476921D01*
X145074Y476796D01*
X145550Y476660D01*
X146021Y476512D01*
X146489Y476352D01*
X146953Y476181D01*
X147413Y475999D01*
X147868Y475806D01*
X148319Y475602D01*
X148764Y475387D01*
X149204Y475161D01*
X149638Y474924D01*
X150066Y474677D01*
X150488Y474420D01*
X150904Y474152D01*
X151313Y473874D01*
X151715Y473587D01*
X152111Y473290D01*
X152498Y472983D01*
X152879Y472667D01*
X153251Y472342D01*
X153616Y472007D01*
X153972Y471664D01*
X154319Y471313D01*
X154659Y470953D01*
X154989Y470585D01*
X155310Y470209D01*
X139700Y477520D02*
X139212Y477514D01*
X138725Y477497D01*
X138238Y477467D01*
X137751Y477426D01*
X137266Y477374D01*
X136782Y477309D01*
X136300Y477233D01*
X135820Y477146D01*
X135342Y477047D01*
X134867Y476937D01*
X134394Y476815D01*
X133925Y476682D01*
X133458Y476537D01*
X132996Y476382D01*
X132537Y476215D01*
X132082Y476038D01*
X131632Y475849D01*
X131187Y475650D01*
X130746Y475440D01*
X130310Y475220D01*
X129880Y474989D01*
X129456Y474748D01*
X129038Y474497D01*
X128625Y474236D01*
X128219Y473965D01*
X127820Y473685D01*
X127427Y473395D01*
X127042Y473095D01*
X126664Y472786D01*
X126293Y472469D01*
X125931Y472142D01*
X125576Y471807D01*
X125229Y471464D01*
X124891Y471112D01*
X124561Y470753D01*
X124240Y470385D01*
X123927Y470010D01*
X123624Y469627D01*
X123330Y469238D01*
X123046Y468841D01*
X122771Y468438D01*
X122506Y468028D01*
X122251Y467612D01*
X122006Y467190D01*
X121771Y466762D01*
X139700Y436880D02*
X140190Y436886D01*
X140680Y436904D01*
X141169Y436933D01*
X141658Y436975D01*
X142145Y437028D01*
X142631Y437092D01*
X143115Y437169D01*
X143597Y437257D01*
X144077Y437357D01*
X144555Y437468D01*
X145029Y437591D01*
X145501Y437726D01*
X145969Y437871D01*
X146433Y438028D01*
X146894Y438196D01*
X147350Y438375D01*
X147802Y438565D01*
X148249Y438766D01*
X148691Y438978D01*
X149128Y439200D01*
X149560Y439432D01*
X149986Y439675D01*
X150405Y439929D01*
X150819Y440192D01*
X151226Y440465D01*
X151626Y440748D01*
X152020Y441041D01*
X152406Y441342D01*
X152785Y441654D01*
X153156Y441974D01*
X153519Y442303D01*
X153875Y442640D01*
X154222Y442987D01*
X154560Y443341D01*
X154890Y443704D01*
X155212Y444074D01*
X139700Y436880D02*
X139203Y436886D01*
X138706Y436904D01*
X138210Y436935D01*
X137715Y436977D01*
X137221Y437032D01*
X136728Y437098D01*
X136238Y437177D01*
X135749Y437268D01*
X135263Y437370D01*
X134779Y437485D01*
X134299Y437611D01*
X133821Y437749D01*
X133347Y437898D01*
X132877Y438059D01*
X132411Y438232D01*
X131949Y438416D01*
X131492Y438611D01*
X131040Y438817D01*
X130593Y439034D01*
X130152Y439263D01*
X129716Y439501D01*
X129286Y439751D01*
X128863Y440011D01*
X128445Y440281D01*
X128035Y440561D01*
X127632Y440851D01*
X127235Y441151D01*
X126847Y441461D01*
X126466Y441780D01*
X126093Y442108D01*
X125728Y442445D01*
X125371Y442791D01*
X125023Y443146D01*
X124684Y443509D01*
X124353Y443880D01*
X124032Y444260D01*
X123720Y444647D01*
X123418Y445041D01*
X123126Y445443D01*
X122843Y445852D01*
X122571Y446267D01*
X122308Y446690D01*
X122057Y447118D01*
D11*
X121285Y487045D02*
X121285Y498475D01*
X121285Y487045D02*
X126365Y487045D01*
X131191Y487045D02*
X136271Y487045D01*
X131191Y487045D02*
X131191Y498475D01*
X136271Y498475D01*
X135001Y493395D02*
X131191Y493395D01*
X141072Y498475D02*
X141072Y487045D01*
X141072Y498475D02*
X144247Y498475D01*
X144358Y498473D01*
X144468Y498467D01*
X144579Y498458D01*
X144689Y498444D01*
X144798Y498427D01*
X144907Y498406D01*
X145015Y498381D01*
X145122Y498352D01*
X145228Y498320D01*
X145333Y498284D01*
X145436Y498244D01*
X145538Y498201D01*
X145639Y498154D01*
X145738Y498103D01*
X145835Y498050D01*
X145929Y497993D01*
X146022Y497932D01*
X146113Y497869D01*
X146202Y497802D01*
X146288Y497732D01*
X146371Y497659D01*
X146453Y497584D01*
X146531Y497506D01*
X146606Y497424D01*
X146679Y497341D01*
X146749Y497255D01*
X146816Y497166D01*
X146879Y497075D01*
X146940Y496982D01*
X146997Y496888D01*
X147050Y496791D01*
X147101Y496692D01*
X147148Y496591D01*
X147191Y496489D01*
X147231Y496386D01*
X147267Y496281D01*
X147299Y496175D01*
X147328Y496068D01*
X147353Y495960D01*
X147374Y495851D01*
X147391Y495742D01*
X147405Y495632D01*
X147414Y495521D01*
X147420Y495411D01*
X147422Y495300D01*
X147422Y490220D01*
X147420Y490109D01*
X147414Y489999D01*
X147405Y489888D01*
X147391Y489778D01*
X147374Y489669D01*
X147353Y489560D01*
X147328Y489452D01*
X147299Y489345D01*
X147267Y489239D01*
X147231Y489134D01*
X147191Y489031D01*
X147148Y488929D01*
X147101Y488828D01*
X147050Y488729D01*
X146997Y488632D01*
X146940Y488538D01*
X146879Y488445D01*
X146816Y488354D01*
X146749Y488265D01*
X146679Y488179D01*
X146606Y488096D01*
X146531Y488014D01*
X146453Y487936D01*
X146371Y487861D01*
X146288Y487788D01*
X146202Y487718D01*
X146113Y487651D01*
X146022Y487588D01*
X145929Y487527D01*
X145834Y487470D01*
X145738Y487417D01*
X145639Y487366D01*
X145538Y487319D01*
X145436Y487276D01*
X145333Y487236D01*
X145228Y487200D01*
X145122Y487168D01*
X145015Y487139D01*
X144907Y487114D01*
X144798Y487093D01*
X144689Y487076D01*
X144579Y487062D01*
X144468Y487053D01*
X144358Y487047D01*
X144247Y487045D01*
X141072Y487045D01*
X156375Y498476D02*
X156479Y498474D01*
X156584Y498468D01*
X156688Y498459D01*
X156791Y498446D01*
X156894Y498428D01*
X156996Y498408D01*
X157098Y498383D01*
X157198Y498355D01*
X157298Y498323D01*
X157396Y498287D01*
X157493Y498248D01*
X157588Y498206D01*
X157682Y498160D01*
X157774Y498110D01*
X157864Y498058D01*
X157952Y498002D01*
X158038Y497942D01*
X158122Y497880D01*
X158203Y497815D01*
X158282Y497747D01*
X158359Y497675D01*
X158432Y497602D01*
X158504Y497525D01*
X158572Y497446D01*
X158637Y497365D01*
X158699Y497281D01*
X158759Y497195D01*
X158815Y497107D01*
X158867Y497017D01*
X158917Y496925D01*
X158963Y496831D01*
X159005Y496736D01*
X159044Y496639D01*
X159080Y496541D01*
X159112Y496441D01*
X159140Y496341D01*
X159165Y496239D01*
X159185Y496137D01*
X159203Y496034D01*
X159216Y495931D01*
X159225Y495827D01*
X159231Y495722D01*
X159233Y495618D01*
X156375Y498475D02*
X156257Y498473D01*
X156138Y498467D01*
X156020Y498458D01*
X155903Y498445D01*
X155786Y498427D01*
X155669Y498407D01*
X155553Y498382D01*
X155438Y498354D01*
X155325Y498321D01*
X155212Y498286D01*
X155100Y498246D01*
X154990Y498204D01*
X154881Y498157D01*
X154773Y498107D01*
X154668Y498054D01*
X154564Y497997D01*
X154462Y497937D01*
X154362Y497874D01*
X154264Y497807D01*
X154168Y497738D01*
X154075Y497665D01*
X153984Y497589D01*
X153895Y497511D01*
X153809Y497429D01*
X153726Y497345D01*
X153645Y497259D01*
X153568Y497169D01*
X153493Y497078D01*
X153421Y496984D01*
X153352Y496887D01*
X153287Y496789D01*
X153224Y496688D01*
X153165Y496585D01*
X153109Y496481D01*
X153057Y496375D01*
X153008Y496267D01*
X152963Y496158D01*
X152921Y496047D01*
X152883Y495935D01*
X158280Y493396D02*
X158356Y493471D01*
X158431Y493550D01*
X158502Y493631D01*
X158571Y493715D01*
X158636Y493801D01*
X158698Y493889D01*
X158758Y493979D01*
X158814Y494071D01*
X158867Y494166D01*
X158916Y494262D01*
X158962Y494360D01*
X159005Y494459D01*
X159044Y494560D01*
X159079Y494662D01*
X159111Y494765D01*
X159139Y494869D01*
X159164Y494974D01*
X159185Y495081D01*
X159202Y495187D01*
X159215Y495294D01*
X159224Y495402D01*
X159230Y495510D01*
X159232Y495618D01*
X158280Y493395D02*
X152883Y487045D01*
X159233Y487045D01*
D10*
X44450Y419100D02*
X31750Y419100D01*
X44450Y419100D02*
X50800Y412750D01*
X50800Y400050D01*
X44450Y393700D01*
X25400Y400050D02*
X25400Y412750D01*
X31750Y419100D01*
X25400Y400050D02*
X31750Y393700D01*
X44450Y393700D01*
X50800Y412750D02*
X57150Y419100D01*
X69850Y419100D01*
X76200Y412750D01*
X76200Y400050D01*
X69850Y393700D01*
X57150Y393700D01*
X50800Y400050D01*
D11*
X11311Y411521D02*
X-118Y411362D01*
X11311Y411521D02*
X11355Y408347D01*
X11355Y408346D02*
X11354Y408234D01*
X11350Y408122D01*
X11342Y408011D01*
X11329Y407899D01*
X11313Y407788D01*
X11293Y407678D01*
X11269Y407568D01*
X11241Y407460D01*
X11210Y407352D01*
X11174Y407246D01*
X11135Y407141D01*
X11092Y407038D01*
X11046Y406936D01*
X10996Y406835D01*
X10942Y406737D01*
X10885Y406640D01*
X10825Y406546D01*
X10761Y406454D01*
X10695Y406364D01*
X10625Y406276D01*
X10552Y406191D01*
X10476Y406109D01*
X10397Y406029D01*
X10315Y405952D01*
X10231Y405878D01*
X10144Y405807D01*
X10055Y405740D01*
X9963Y405675D01*
X9869Y405614D01*
X9774Y405556D01*
X9676Y405501D01*
X9576Y405450D01*
X9474Y405403D01*
X9371Y405359D01*
X9267Y405319D01*
X9161Y405282D01*
X9053Y405250D01*
X8945Y405221D01*
X8836Y405196D01*
X8726Y405174D01*
X8615Y405157D01*
X8504Y405144D01*
X8392Y405134D01*
X8280Y405129D01*
X8168Y405127D01*
X8056Y405129D01*
X7944Y405136D01*
X7833Y405146D01*
X7722Y405160D01*
X7611Y405178D01*
X7501Y405200D01*
X7392Y405226D01*
X7284Y405256D01*
X7177Y405290D01*
X7071Y405327D01*
X6967Y405368D01*
X6864Y405412D01*
X6763Y405461D01*
X6664Y405512D01*
X6566Y405568D01*
X6471Y405626D01*
X6377Y405688D01*
X6286Y405754D01*
X6198Y405822D01*
X6111Y405893D01*
X6028Y405968D01*
X5947Y406045D01*
X5868Y406126D01*
X5793Y406209D01*
X5721Y406294D01*
X5651Y406382D01*
X5585Y406473D01*
X5522Y406565D01*
X5462Y406660D01*
X5406Y406757D01*
X5353Y406856D01*
X5304Y406957D01*
X5258Y407059D01*
X5216Y407163D01*
X5178Y407268D01*
X5143Y407375D01*
X5113Y407483D01*
X5086Y407591D01*
X5062Y407701D01*
X5043Y407811D01*
X5028Y407922D01*
X5016Y408034D01*
X5009Y408146D01*
X5005Y408258D01*
X5006Y408258D02*
X4961Y411433D01*
X8923Y400628D02*
X11507Y397489D01*
X78Y397330D01*
X33Y400504D02*
X122Y394155D01*
X241Y385647D02*
X245Y385547D01*
X252Y385447D01*
X263Y385348D01*
X278Y385250D01*
X297Y385152D01*
X320Y385055D01*
X346Y384958D01*
X377Y384863D01*
X410Y384770D01*
X448Y384677D01*
X489Y384587D01*
X534Y384497D01*
X582Y384410D01*
X634Y384325D01*
X689Y384242D01*
X747Y384160D01*
X808Y384082D01*
X873Y384006D01*
X940Y383932D01*
X1010Y383861D01*
X1083Y383793D01*
X1159Y383728D01*
X1237Y383666D01*
X1317Y383606D01*
X1399Y383551D01*
X1484Y383498D01*
X1571Y383449D01*
X1660Y383403D01*
X1750Y383361D01*
X1842Y383322D01*
X1935Y383287D01*
X2030Y383256D01*
X2126Y383228D01*
X2223Y383204D01*
X2320Y383184D01*
X2419Y383168D01*
X2518Y383156D01*
X2617Y383147D01*
X2717Y383143D01*
X2817Y383142D01*
X241Y385647D02*
X240Y385788D01*
X244Y385930D01*
X251Y386071D01*
X262Y386211D01*
X277Y386352D01*
X296Y386492D01*
X318Y386631D01*
X343Y386770D01*
X373Y386908D01*
X406Y387046D01*
X442Y387182D01*
X483Y387317D01*
X526Y387452D01*
X574Y387585D01*
X624Y387716D01*
X679Y387847D01*
X736Y387976D01*
X797Y388103D01*
X862Y388229D01*
X929Y388353D01*
X1000Y388475D01*
X1074Y388595D01*
X1151Y388714D01*
X1232Y388830D01*
X1315Y388944D01*
X1401Y389056D01*
X1490Y389165D01*
X1582Y389272D01*
X1677Y389377D01*
X1775Y389479D01*
X9082Y389263D02*
X9181Y389262D01*
X9281Y389258D01*
X9380Y389249D01*
X9479Y389237D01*
X9578Y389221D01*
X9675Y389201D01*
X9772Y389177D01*
X9868Y389149D01*
X9963Y389118D01*
X10056Y389083D01*
X10148Y389044D01*
X10238Y389002D01*
X10327Y388956D01*
X10414Y388907D01*
X10499Y388854D01*
X10581Y388799D01*
X10662Y388739D01*
X10739Y388677D01*
X10815Y388612D01*
X10888Y388544D01*
X10958Y388473D01*
X11025Y388399D01*
X11090Y388323D01*
X11151Y388245D01*
X11209Y388164D01*
X11264Y388080D01*
X11316Y387995D01*
X11364Y387908D01*
X11409Y387819D01*
X11450Y387728D01*
X11487Y387635D01*
X11521Y387542D01*
X11552Y387447D01*
X11578Y387350D01*
X11601Y387253D01*
X11620Y387155D01*
X11635Y387057D01*
X11646Y386958D01*
X11653Y386858D01*
X11657Y386759D01*
X11657Y386625D01*
X11653Y386492D01*
X11645Y386359D01*
X11634Y386226D01*
X11619Y386094D01*
X11601Y385962D01*
X11578Y385831D01*
X11553Y385700D01*
X11523Y385570D01*
X11490Y385441D01*
X11453Y385313D01*
X11413Y385186D01*
X11369Y385060D01*
X11321Y384936D01*
X11270Y384812D01*
X11216Y384691D01*
X11158Y384571D01*
X11097Y384452D01*
X11033Y384336D01*
X10966Y384221D01*
X10895Y384108D01*
X10821Y383997D01*
X10744Y383888D01*
X6876Y387963D02*
X6927Y388048D01*
X6981Y388131D01*
X7038Y388212D01*
X7099Y388291D01*
X7162Y388367D01*
X7228Y388441D01*
X7297Y388513D01*
X7369Y388581D01*
X7443Y388647D01*
X7520Y388710D01*
X7599Y388770D01*
X7680Y388827D01*
X7763Y388880D01*
X7849Y388931D01*
X7936Y388978D01*
X8025Y389022D01*
X8116Y389062D01*
X8208Y389099D01*
X8301Y389132D01*
X8396Y389161D01*
X8492Y389187D01*
X8589Y389209D01*
X8686Y389228D01*
X8784Y389242D01*
X8883Y389253D01*
X8982Y389260D01*
X9081Y389264D01*
X5021Y384443D02*
X4970Y384358D01*
X4916Y384275D01*
X4859Y384194D01*
X4798Y384115D01*
X4735Y384039D01*
X4669Y383965D01*
X4600Y383893D01*
X4528Y383825D01*
X4454Y383759D01*
X4378Y383696D01*
X4298Y383636D01*
X4217Y383579D01*
X4134Y383526D01*
X4048Y383475D01*
X3961Y383428D01*
X3872Y383384D01*
X3781Y383344D01*
X3689Y383307D01*
X3596Y383274D01*
X3501Y383245D01*
X3405Y383219D01*
X3308Y383197D01*
X3211Y383178D01*
X3113Y383164D01*
X3014Y383153D01*
X2915Y383146D01*
X2816Y383142D01*
X5021Y384443D02*
X6877Y387962D01*
X8596Y378524D02*
X3517Y378453D01*
X8596Y378524D02*
X8706Y378523D01*
X8817Y378519D01*
X8928Y378511D01*
X9038Y378499D01*
X9148Y378483D01*
X9257Y378464D01*
X9365Y378440D01*
X9472Y378413D01*
X9579Y378382D01*
X9684Y378347D01*
X9788Y378309D01*
X9891Y378267D01*
X9992Y378222D01*
X10091Y378173D01*
X10189Y378121D01*
X10285Y378065D01*
X10379Y378006D01*
X10470Y377943D01*
X10560Y377878D01*
X10647Y377809D01*
X10731Y377738D01*
X10813Y377663D01*
X10893Y377586D01*
X10970Y377506D01*
X11043Y377424D01*
X11114Y377338D01*
X11182Y377251D01*
X11247Y377161D01*
X11309Y377069D01*
X11367Y376975D01*
X11422Y376879D01*
X11474Y376781D01*
X11522Y376681D01*
X11567Y376579D01*
X11608Y376476D01*
X11646Y376372D01*
X11679Y376267D01*
X11710Y376160D01*
X11736Y376052D01*
X11759Y375944D01*
X11778Y375835D01*
X11793Y375725D01*
X11804Y375615D01*
X11811Y375504D01*
X11815Y375393D01*
X11814Y375283D01*
X11810Y375172D01*
X11802Y375061D01*
X11790Y374951D01*
X11774Y374841D01*
X11755Y374732D01*
X11731Y374624D01*
X11704Y374517D01*
X11673Y374410D01*
X11638Y374305D01*
X11600Y374201D01*
X11558Y374098D01*
X11513Y373997D01*
X11464Y373898D01*
X11412Y373800D01*
X11356Y373704D01*
X11297Y373610D01*
X11234Y373519D01*
X11169Y373429D01*
X11100Y373342D01*
X11029Y373258D01*
X10954Y373176D01*
X10877Y373096D01*
X10797Y373019D01*
X10715Y372946D01*
X10629Y372875D01*
X10542Y372807D01*
X10452Y372742D01*
X10360Y372680D01*
X10266Y372622D01*
X10170Y372567D01*
X10072Y372515D01*
X9972Y372467D01*
X9870Y372422D01*
X9767Y372381D01*
X9663Y372343D01*
X9558Y372310D01*
X9451Y372279D01*
X9343Y372253D01*
X9235Y372230D01*
X9126Y372211D01*
X9016Y372196D01*
X8906Y372185D01*
X8795Y372178D01*
X8684Y372174D01*
X8685Y372174D02*
X3605Y372103D01*
X3495Y372104D01*
X3384Y372108D01*
X3273Y372116D01*
X3163Y372128D01*
X3053Y372144D01*
X2944Y372163D01*
X2836Y372187D01*
X2729Y372214D01*
X2622Y372245D01*
X2517Y372280D01*
X2413Y372318D01*
X2310Y372360D01*
X2209Y372405D01*
X2110Y372454D01*
X2012Y372506D01*
X1916Y372562D01*
X1822Y372621D01*
X1731Y372684D01*
X1641Y372749D01*
X1554Y372818D01*
X1470Y372889D01*
X1388Y372964D01*
X1308Y373041D01*
X1231Y373121D01*
X1158Y373203D01*
X1087Y373289D01*
X1019Y373376D01*
X954Y373466D01*
X892Y373558D01*
X834Y373652D01*
X779Y373748D01*
X727Y373846D01*
X679Y373946D01*
X634Y374048D01*
X593Y374151D01*
X555Y374255D01*
X522Y374360D01*
X491Y374467D01*
X465Y374575D01*
X442Y374683D01*
X423Y374792D01*
X408Y374902D01*
X397Y375012D01*
X390Y375123D01*
X386Y375234D01*
X387Y375344D01*
X391Y375455D01*
X399Y375566D01*
X411Y375676D01*
X427Y375786D01*
X446Y375895D01*
X470Y376003D01*
X497Y376110D01*
X528Y376217D01*
X563Y376322D01*
X601Y376426D01*
X643Y376529D01*
X688Y376630D01*
X737Y376729D01*
X789Y376827D01*
X845Y376923D01*
X904Y377017D01*
X967Y377108D01*
X1032Y377198D01*
X1101Y377285D01*
X1172Y377369D01*
X1247Y377451D01*
X1324Y377531D01*
X1404Y377608D01*
X1486Y377681D01*
X1572Y377752D01*
X1659Y377820D01*
X1749Y377885D01*
X1841Y377947D01*
X1935Y378005D01*
X2031Y378060D01*
X2129Y378112D01*
X2229Y378160D01*
X2331Y378205D01*
X2434Y378246D01*
X2538Y378284D01*
X2643Y378317D01*
X2750Y378348D01*
X2858Y378374D01*
X2966Y378397D01*
X3075Y378416D01*
X3185Y378431D01*
X3295Y378442D01*
X3406Y378449D01*
X3517Y378453D01*
X507Y366573D02*
X11936Y366733D01*
X507Y366573D02*
X578Y361494D01*
X631Y357709D02*
X12113Y354059D01*
X737Y350090D01*
X3581Y351082D02*
X3501Y356797D01*
X806Y345182D02*
X12235Y345341D01*
X12279Y342167D01*
X12279Y342166D02*
X12278Y342054D01*
X12274Y341942D01*
X12266Y341831D01*
X12253Y341719D01*
X12237Y341608D01*
X12217Y341498D01*
X12193Y341388D01*
X12165Y341280D01*
X12134Y341172D01*
X12098Y341066D01*
X12059Y340961D01*
X12016Y340858D01*
X11970Y340756D01*
X11920Y340655D01*
X11866Y340557D01*
X11809Y340460D01*
X11749Y340366D01*
X11685Y340274D01*
X11619Y340184D01*
X11549Y340096D01*
X11476Y340011D01*
X11400Y339929D01*
X11321Y339849D01*
X11239Y339772D01*
X11155Y339698D01*
X11068Y339627D01*
X10979Y339560D01*
X10887Y339495D01*
X10793Y339434D01*
X10698Y339376D01*
X10600Y339321D01*
X10500Y339270D01*
X10398Y339223D01*
X10295Y339179D01*
X10191Y339139D01*
X10085Y339102D01*
X9977Y339070D01*
X9869Y339041D01*
X9760Y339016D01*
X9650Y338994D01*
X9539Y338977D01*
X9428Y338964D01*
X9316Y338954D01*
X9204Y338949D01*
X9092Y338947D01*
X8980Y338949D01*
X8868Y338956D01*
X8757Y338966D01*
X8646Y338980D01*
X8535Y338998D01*
X8425Y339020D01*
X8316Y339046D01*
X8208Y339076D01*
X8101Y339110D01*
X7995Y339147D01*
X7891Y339188D01*
X7788Y339232D01*
X7687Y339281D01*
X7588Y339332D01*
X7490Y339388D01*
X7395Y339446D01*
X7301Y339508D01*
X7210Y339574D01*
X7122Y339642D01*
X7035Y339713D01*
X6952Y339788D01*
X6871Y339865D01*
X6792Y339946D01*
X6717Y340029D01*
X6645Y340114D01*
X6575Y340202D01*
X6509Y340293D01*
X6446Y340385D01*
X6386Y340480D01*
X6330Y340577D01*
X6277Y340676D01*
X6228Y340777D01*
X6182Y340879D01*
X6140Y340983D01*
X6102Y341088D01*
X6067Y341195D01*
X6037Y341303D01*
X6010Y341411D01*
X5986Y341521D01*
X5967Y341631D01*
X5952Y341742D01*
X5940Y341854D01*
X5933Y341966D01*
X5929Y342078D01*
X5930Y342078D02*
X5885Y345253D01*
X5938Y341443D02*
X894Y338832D01*
X999Y331333D02*
X1035Y328794D01*
X999Y331334D02*
X1000Y331433D01*
X1004Y331533D01*
X1013Y331632D01*
X1025Y331731D01*
X1041Y331830D01*
X1061Y331927D01*
X1085Y332024D01*
X1113Y332120D01*
X1144Y332215D01*
X1179Y332308D01*
X1218Y332400D01*
X1260Y332490D01*
X1306Y332579D01*
X1355Y332666D01*
X1408Y332751D01*
X1463Y332833D01*
X1523Y332914D01*
X1585Y332991D01*
X1650Y333067D01*
X1718Y333140D01*
X1789Y333210D01*
X1863Y333277D01*
X1939Y333342D01*
X2018Y333403D01*
X2099Y333461D01*
X2182Y333516D01*
X2267Y333568D01*
X2354Y333616D01*
X2444Y333661D01*
X2534Y333702D01*
X2627Y333740D01*
X2720Y333774D01*
X2816Y333804D01*
X2912Y333830D01*
X3009Y333853D01*
X3107Y333872D01*
X3205Y333887D01*
X3304Y333898D01*
X3404Y333905D01*
X3504Y333909D01*
X3503Y333909D02*
X9853Y333997D01*
X9952Y333996D01*
X10052Y333992D01*
X10151Y333983D01*
X10250Y333971D01*
X10349Y333955D01*
X10446Y333935D01*
X10543Y333911D01*
X10639Y333883D01*
X10734Y333852D01*
X10827Y333817D01*
X10919Y333778D01*
X11009Y333736D01*
X11098Y333690D01*
X11185Y333641D01*
X11270Y333588D01*
X11352Y333533D01*
X11432Y333473D01*
X11510Y333411D01*
X11586Y333346D01*
X11659Y333278D01*
X11729Y333207D01*
X11796Y333133D01*
X11861Y333057D01*
X11922Y332979D01*
X11980Y332898D01*
X12035Y332814D01*
X12087Y332729D01*
X12135Y332642D01*
X12180Y332553D01*
X12221Y332462D01*
X12258Y332369D01*
X12292Y332276D01*
X12323Y332181D01*
X12349Y332084D01*
X12372Y331987D01*
X12391Y331889D01*
X12406Y331791D01*
X12417Y331692D01*
X12424Y331592D01*
X12428Y331492D01*
X12428Y331493D02*
X12463Y328953D01*
X1103Y323905D02*
X1174Y318826D01*
X1103Y323905D02*
X12532Y324065D01*
X12603Y318985D01*
X7505Y320184D02*
X7452Y323994D01*
X12670Y314160D02*
X1241Y314000D01*
X1312Y308921D01*
X1379Y304095D02*
X12808Y304255D01*
X1379Y304095D02*
X1450Y299016D01*
X55254Y326391D02*
X54867Y326895D01*
X54491Y327408D01*
X54128Y327930D01*
X53777Y328460D01*
X53440Y328998D01*
X53115Y329545D01*
X52803Y330099D01*
X52504Y330660D01*
X52219Y331229D01*
X51948Y331804D01*
X51690Y332385D01*
X51447Y332972D01*
X51217Y333565D01*
X51002Y334163D01*
X50801Y334766D01*
X50614Y335374D01*
X50442Y335986D01*
X50284Y336602D01*
X50142Y337222D01*
X50014Y337844D01*
X49901Y338470D01*
X49802Y339098D01*
X49719Y339728D01*
X49651Y340361D01*
X49651Y340360D02*
X49597Y341009D01*
X49559Y341658D01*
X49537Y342309D01*
X49530Y342960D01*
X49539Y343611D01*
X49565Y344261D01*
X49606Y344911D01*
X49663Y345559D01*
X49736Y346206D01*
X49824Y346851D01*
X49929Y347494D01*
X50049Y348134D01*
X50184Y348770D01*
X50335Y349404D01*
X50502Y350033D01*
X50683Y350658D01*
X50880Y351279D01*
X51092Y351894D01*
X51319Y352504D01*
X51561Y353109D01*
X51818Y353707D01*
X52089Y354299D01*
X52374Y354884D01*
X52674Y355462D01*
X52987Y356032D01*
X53315Y356595D01*
X53656Y357149D01*
X54010Y357695D01*
X54378Y358232D01*
X54759Y358761D01*
X55152Y359279D01*
X55558Y359788D01*
X55976Y360287D01*
X56407Y360775D01*
X56849Y361253D01*
X57303Y361720D01*
X57768Y362175D01*
X58244Y362619D01*
X58730Y363052D01*
X59227Y363472D01*
X59734Y363880D01*
X60251Y364276D01*
X60778Y364659D01*
X61314Y365029D01*
X61858Y365386D01*
X62411Y365729D01*
X62972Y366059D01*
X63542Y366375D01*
X64118Y366677D01*
X64702Y366964D01*
X65293Y367238D01*
X65890Y367497D01*
X66494Y367741D01*
X67103Y367971D01*
X67717Y368185D01*
X68337Y368385D01*
X84063Y368385D02*
X84678Y368186D01*
X85289Y367974D01*
X85894Y367746D01*
X86493Y367504D01*
X87086Y367247D01*
X87673Y366976D01*
X88253Y366691D01*
X88826Y366392D01*
X89392Y366079D01*
X89950Y365752D01*
X90500Y365412D01*
X91041Y365059D01*
X91574Y364693D01*
X92097Y364314D01*
X92612Y363922D01*
X93116Y363519D01*
X93611Y363102D01*
X94096Y362675D01*
X94570Y362235D01*
X95033Y361784D01*
X95485Y361322D01*
X95926Y360849D01*
X96355Y360366D01*
X96772Y359872D01*
X97178Y359369D01*
X97571Y358856D01*
X97951Y358333D01*
X98319Y357801D01*
X98673Y357261D01*
X99015Y356712D01*
X99343Y356155D01*
X99657Y355590D01*
X99958Y355018D01*
X100245Y354439D01*
X100517Y353852D01*
X100776Y353260D01*
X101019Y352661D01*
X101249Y352057D01*
X101463Y351447D01*
X101663Y350832D01*
X101848Y350213D01*
X102018Y349589D01*
X102172Y348961D01*
X102311Y348330D01*
X102435Y347696D01*
X102544Y347058D01*
X102637Y346419D01*
X102714Y345777D01*
X102776Y345134D01*
X102823Y344489D01*
X102853Y343843D01*
X102868Y343197D01*
X102868Y342551D01*
X102851Y341904D01*
X102819Y341259D01*
X102772Y340614D01*
X102709Y339971D01*
X102630Y339329D01*
X102536Y338690D01*
X102426Y338053D01*
X102301Y337418D01*
X102160Y336787D01*
X102004Y336160D01*
X101833Y335537D01*
X101647Y334918D01*
X101446Y334303D01*
X101231Y333694D01*
X101000Y333090D01*
X100755Y332492D01*
X100496Y331900D01*
X100222Y331314D01*
X99934Y330735D01*
X99632Y330164D01*
X99317Y329599D01*
X98988Y329043D01*
X98645Y328495D01*
X98289Y327955D01*
X97921Y327424D01*
X97539Y326902D01*
X97145Y326390D01*
X55255Y326390D01*
X53663Y340360D02*
X49651Y340360D01*
X73337Y340360D02*
X79063Y340360D01*
X98737Y340360D02*
X102749Y340360D01*
X83185Y320040D02*
X83185Y314960D01*
X83185Y320040D02*
X83187Y320151D01*
X83193Y320261D01*
X83202Y320372D01*
X83216Y320482D01*
X83233Y320591D01*
X83254Y320700D01*
X83279Y320808D01*
X83308Y320915D01*
X83340Y321021D01*
X83376Y321126D01*
X83416Y321229D01*
X83459Y321331D01*
X83506Y321432D01*
X83557Y321531D01*
X83610Y321628D01*
X83667Y321722D01*
X83728Y321815D01*
X83791Y321906D01*
X83858Y321995D01*
X83928Y322081D01*
X84001Y322164D01*
X84076Y322246D01*
X84154Y322324D01*
X84236Y322399D01*
X84319Y322472D01*
X84405Y322542D01*
X84494Y322609D01*
X84585Y322672D01*
X84678Y322733D01*
X84773Y322790D01*
X84869Y322843D01*
X84968Y322894D01*
X85069Y322941D01*
X85171Y322984D01*
X85274Y323024D01*
X85379Y323060D01*
X85485Y323092D01*
X85592Y323121D01*
X85700Y323146D01*
X85809Y323167D01*
X85918Y323184D01*
X86028Y323198D01*
X86139Y323207D01*
X86249Y323213D01*
X86360Y323215D01*
X86471Y323213D01*
X86581Y323207D01*
X86692Y323198D01*
X86802Y323184D01*
X86911Y323167D01*
X87020Y323146D01*
X87128Y323121D01*
X87235Y323092D01*
X87341Y323060D01*
X87446Y323024D01*
X87549Y322984D01*
X87651Y322941D01*
X87752Y322894D01*
X87851Y322843D01*
X87948Y322790D01*
X88042Y322733D01*
X88135Y322672D01*
X88226Y322609D01*
X88315Y322542D01*
X88401Y322472D01*
X88484Y322399D01*
X88566Y322324D01*
X88644Y322246D01*
X88719Y322164D01*
X88792Y322081D01*
X88862Y321995D01*
X88929Y321906D01*
X88992Y321815D01*
X89053Y321722D01*
X89110Y321628D01*
X89163Y321531D01*
X89214Y321432D01*
X89261Y321331D01*
X89304Y321229D01*
X89344Y321126D01*
X89380Y321021D01*
X89412Y320915D01*
X89441Y320808D01*
X89466Y320700D01*
X89487Y320591D01*
X89504Y320482D01*
X89518Y320372D01*
X89527Y320261D01*
X89533Y320151D01*
X89535Y320040D01*
X89535Y314960D01*
X89533Y314849D01*
X89527Y314739D01*
X89518Y314628D01*
X89504Y314518D01*
X89487Y314409D01*
X89466Y314300D01*
X89441Y314192D01*
X89412Y314085D01*
X89380Y313979D01*
X89344Y313874D01*
X89304Y313771D01*
X89261Y313669D01*
X89214Y313568D01*
X89163Y313469D01*
X89110Y313372D01*
X89053Y313278D01*
X88992Y313185D01*
X88929Y313094D01*
X88862Y313005D01*
X88792Y312919D01*
X88719Y312836D01*
X88644Y312754D01*
X88566Y312676D01*
X88484Y312601D01*
X88401Y312528D01*
X88315Y312458D01*
X88226Y312391D01*
X88135Y312328D01*
X88042Y312267D01*
X87947Y312210D01*
X87851Y312157D01*
X87752Y312106D01*
X87651Y312059D01*
X87549Y312016D01*
X87446Y311976D01*
X87341Y311940D01*
X87235Y311908D01*
X87128Y311879D01*
X87020Y311854D01*
X86911Y311833D01*
X86802Y311816D01*
X86692Y311802D01*
X86581Y311793D01*
X86471Y311787D01*
X86360Y311785D01*
X86249Y311787D01*
X86139Y311793D01*
X86028Y311802D01*
X85918Y311816D01*
X85809Y311833D01*
X85700Y311854D01*
X85592Y311879D01*
X85485Y311908D01*
X85379Y311940D01*
X85274Y311976D01*
X85171Y312016D01*
X85069Y312059D01*
X84968Y312106D01*
X84869Y312157D01*
X84773Y312210D01*
X84678Y312267D01*
X84585Y312328D01*
X84494Y312391D01*
X84405Y312458D01*
X84319Y312528D01*
X84236Y312601D01*
X84154Y312676D01*
X84076Y312754D01*
X84001Y312836D01*
X83928Y312919D01*
X83858Y313005D01*
X83791Y313094D01*
X83728Y313185D01*
X83667Y313278D01*
X83610Y313373D01*
X83557Y313469D01*
X83506Y313568D01*
X83459Y313669D01*
X83416Y313771D01*
X83376Y313874D01*
X83340Y313979D01*
X83308Y314085D01*
X83279Y314192D01*
X83254Y314300D01*
X83233Y314409D01*
X83216Y314518D01*
X83202Y314628D01*
X83193Y314739D01*
X83187Y314849D01*
X83185Y314960D01*
X88265Y314325D02*
X90805Y311785D01*
X94246Y320675D02*
X97421Y323215D01*
X97421Y311785D01*
X94246Y311785D02*
X100596Y311785D01*
D10*
X201930Y464820D02*
X201930Y474980D01*
D13*
X219030Y460611D02*
X218810Y461156D01*
X218604Y461706D01*
X218411Y462260D01*
X218232Y462820D01*
X218067Y463383D01*
X217915Y463951D01*
X217777Y464522D01*
X217653Y465096D01*
X217543Y465673D01*
X217447Y466252D01*
X217366Y466834D01*
X217298Y467418D01*
X217245Y468002D01*
X217206Y468589D01*
X217181Y469175D01*
X217170Y469763D01*
X217174Y470350D01*
X217192Y470937D01*
X217225Y471524D01*
X217271Y472109D01*
X217332Y472693D01*
X217407Y473276D01*
X217497Y473856D01*
X217600Y474435D01*
X217717Y475010D01*
X217849Y475583D01*
X217994Y476152D01*
X218153Y476717D01*
X218326Y477278D01*
X218512Y477835D01*
X218712Y478388D01*
X218925Y478935D01*
X219152Y479477D01*
X219391Y480013D01*
X219644Y480543D01*
X219910Y481067D01*
X220188Y481585D01*
X220478Y482095D01*
X220781Y482598D01*
X221096Y483094D01*
X221424Y483582D01*
X221762Y484062D01*
X222113Y484533D01*
X222475Y484996D01*
X222848Y485449D01*
X223232Y485894D01*
X223626Y486329D01*
X224031Y486754D01*
X224447Y487170D01*
X224872Y487575D01*
X225307Y487969D01*
X225752Y488353D01*
X226205Y488726D01*
X226668Y489088D01*
X227139Y489439D01*
X227619Y489777D01*
X228107Y490105D01*
X228603Y490420D01*
X229106Y490723D01*
X229616Y491013D01*
X230134Y491291D01*
X230658Y491557D01*
X231188Y491810D01*
X231724Y492049D01*
X232266Y492276D01*
X232813Y492489D01*
X233366Y492689D01*
X233923Y492875D01*
X234484Y493048D01*
X235049Y493207D01*
X235618Y493352D01*
X236191Y493484D01*
X236766Y493601D01*
X237345Y493704D01*
X237925Y493794D01*
X238508Y493869D01*
X239092Y493930D01*
X239677Y493976D01*
X240264Y494009D01*
X240851Y494027D01*
X241438Y494031D01*
X242026Y494020D01*
X242612Y493995D01*
X243199Y493956D01*
X243783Y493903D01*
X244367Y493835D01*
X244949Y493754D01*
X245528Y493658D01*
X246105Y493548D01*
X246679Y493424D01*
X247250Y493286D01*
X247818Y493134D01*
X248381Y492969D01*
X248941Y492790D01*
X249495Y492597D01*
X250045Y492391D01*
X250590Y492171D01*
D10*
X212530Y464820D02*
X201930Y464820D01*
D13*
X232011Y447630D02*
X232547Y447414D01*
X233088Y447210D01*
X233634Y447020D01*
X234184Y446843D01*
X234738Y446679D01*
X235296Y446529D01*
X235857Y446392D01*
X236422Y446268D01*
X236989Y446158D01*
X237559Y446062D01*
X238131Y445979D01*
X238704Y445910D01*
X239280Y445855D01*
X239856Y445813D01*
X240433Y445786D01*
X241011Y445772D01*
X241589Y445772D01*
X242167Y445786D01*
X242744Y445813D01*
X243320Y445855D01*
X243896Y445910D01*
X244469Y445979D01*
X245041Y446062D01*
X245611Y446158D01*
X246178Y446268D01*
X246743Y446392D01*
X247304Y446529D01*
X247862Y446679D01*
X248416Y446843D01*
X248966Y447020D01*
X249512Y447210D01*
X250053Y447414D01*
X250589Y447630D01*
D10*
X212530Y474980D02*
X201930Y474980D01*
D13*
X263570Y479189D02*
X263786Y478653D01*
X263990Y478112D01*
X264180Y477566D01*
X264357Y477016D01*
X264521Y476462D01*
X264671Y475904D01*
X264808Y475343D01*
X264932Y474778D01*
X265042Y474211D01*
X265138Y473641D01*
X265221Y473069D01*
X265290Y472496D01*
X265345Y471920D01*
X265387Y471344D01*
X265414Y470767D01*
X265428Y470189D01*
X265428Y469611D01*
X265414Y469033D01*
X265387Y468456D01*
X265345Y467880D01*
X265290Y467304D01*
X265221Y466731D01*
X265138Y466159D01*
X265042Y465589D01*
X264932Y465022D01*
X264808Y464457D01*
X264671Y463896D01*
X264521Y463338D01*
X264357Y462784D01*
X264180Y462234D01*
X263990Y461688D01*
X263786Y461147D01*
X263570Y460611D01*
D10*
X212090Y469900D02*
X212099Y470617D01*
X212125Y471333D01*
X212169Y472049D01*
X212231Y472763D01*
X212310Y473476D01*
X212406Y474186D01*
X212520Y474894D01*
X212651Y475599D01*
X212800Y476300D01*
X212965Y476997D01*
X213148Y477691D01*
X213348Y478379D01*
X213564Y479063D01*
X213797Y479741D01*
X214047Y480413D01*
X214313Y481078D01*
X214596Y481737D01*
X214894Y482389D01*
X215209Y483033D01*
X215539Y483669D01*
X215885Y484298D01*
X216246Y484917D01*
X216622Y485527D01*
X217013Y486128D01*
X217418Y486719D01*
X217838Y487300D01*
X218272Y487871D01*
X218720Y488431D01*
X219182Y488979D01*
X219657Y489516D01*
X220145Y490041D01*
X220645Y490555D01*
X221159Y491055D01*
X221684Y491543D01*
X222221Y492018D01*
X222769Y492480D01*
X223329Y492928D01*
X223900Y493362D01*
X224481Y493782D01*
X225072Y494187D01*
X225673Y494578D01*
X226283Y494954D01*
X226902Y495315D01*
X227531Y495661D01*
X228167Y495991D01*
X228811Y496306D01*
X229463Y496604D01*
X230122Y496887D01*
X230787Y497153D01*
X231459Y497403D01*
X232137Y497636D01*
X232821Y497852D01*
X233509Y498052D01*
X234203Y498235D01*
X234900Y498400D01*
X235601Y498549D01*
X236306Y498680D01*
X237014Y498794D01*
X237724Y498890D01*
X238437Y498969D01*
X239151Y499031D01*
X239867Y499075D01*
X240583Y499101D01*
X241300Y499110D01*
X242017Y499101D01*
X242733Y499075D01*
X243449Y499031D01*
X244163Y498969D01*
X244876Y498890D01*
X245586Y498794D01*
X246294Y498680D01*
X246999Y498549D01*
X247700Y498400D01*
X248397Y498235D01*
X249091Y498052D01*
X249779Y497852D01*
X250463Y497636D01*
X251141Y497403D01*
X251813Y497153D01*
X252478Y496887D01*
X253137Y496604D01*
X253789Y496306D01*
X254433Y495991D01*
X255069Y495661D01*
X255698Y495315D01*
X256317Y494954D01*
X256927Y494578D01*
X257528Y494187D01*
X258119Y493782D01*
X258700Y493362D01*
X259271Y492928D01*
X259831Y492480D01*
X260379Y492018D01*
X260916Y491543D01*
X261441Y491055D01*
X261955Y490555D01*
X262455Y490041D01*
X262943Y489516D01*
X263418Y488979D01*
X263880Y488431D01*
X264328Y487871D01*
X264762Y487300D01*
X265182Y486719D01*
X265587Y486128D01*
X265978Y485527D01*
X266354Y484917D01*
X266715Y484298D01*
X267061Y483669D01*
X267391Y483033D01*
X267706Y482389D01*
X268004Y481737D01*
X268287Y481078D01*
X268553Y480413D01*
X268803Y479741D01*
X269036Y479063D01*
X269252Y478379D01*
X269452Y477691D01*
X269635Y476997D01*
X269800Y476300D01*
X269949Y475599D01*
X270080Y474894D01*
X270194Y474186D01*
X270290Y473476D01*
X270369Y472763D01*
X270431Y472049D01*
X270475Y471333D01*
X270501Y470617D01*
X270510Y469900D01*
X270501Y469183D01*
X270475Y468467D01*
X270431Y467751D01*
X270369Y467037D01*
X270290Y466324D01*
X270194Y465614D01*
X270080Y464906D01*
X269949Y464201D01*
X269800Y463500D01*
X269635Y462803D01*
X269452Y462109D01*
X269252Y461421D01*
X269036Y460737D01*
X268803Y460059D01*
X268553Y459387D01*
X268287Y458722D01*
X268004Y458063D01*
X267706Y457411D01*
X267391Y456767D01*
X267061Y456131D01*
X266715Y455502D01*
X266354Y454883D01*
X265978Y454273D01*
X265587Y453672D01*
X265182Y453081D01*
X264762Y452500D01*
X264328Y451929D01*
X263880Y451369D01*
X263418Y450821D01*
X262943Y450284D01*
X262455Y449759D01*
X261955Y449245D01*
X261441Y448745D01*
X260916Y448257D01*
X260379Y447782D01*
X259831Y447320D01*
X259271Y446872D01*
X258700Y446438D01*
X258119Y446018D01*
X257528Y445613D01*
X256927Y445222D01*
X256317Y444846D01*
X255698Y444485D01*
X255069Y444139D01*
X254433Y443809D01*
X253789Y443494D01*
X253137Y443196D01*
X252478Y442913D01*
X251813Y442647D01*
X251141Y442397D01*
X250463Y442164D01*
X249779Y441948D01*
X249091Y441748D01*
X248397Y441565D01*
X247700Y441400D01*
X246999Y441251D01*
X246294Y441120D01*
X245586Y441006D01*
X244876Y440910D01*
X244163Y440831D01*
X243449Y440769D01*
X242733Y440725D01*
X242017Y440699D01*
X241300Y440690D01*
X240583Y440699D01*
X239867Y440725D01*
X239151Y440769D01*
X238437Y440831D01*
X237724Y440910D01*
X237014Y441006D01*
X236306Y441120D01*
X235601Y441251D01*
X234900Y441400D01*
X234203Y441565D01*
X233509Y441748D01*
X232821Y441948D01*
X232137Y442164D01*
X231459Y442397D01*
X230787Y442647D01*
X230122Y442913D01*
X229463Y443196D01*
X228811Y443494D01*
X228167Y443809D01*
X227531Y444139D01*
X226902Y444485D01*
X226283Y444846D01*
X225673Y445222D01*
X225072Y445613D01*
X224481Y446018D01*
X223900Y446438D01*
X223329Y446872D01*
X222769Y447320D01*
X222221Y447782D01*
X221684Y448257D01*
X221159Y448745D01*
X220645Y449245D01*
X220145Y449759D01*
X219657Y450284D01*
X219182Y450821D01*
X218720Y451369D01*
X218272Y451929D01*
X217838Y452500D01*
X217418Y453081D01*
X217013Y453672D01*
X216622Y454273D01*
X216246Y454883D01*
X215885Y455502D01*
X215539Y456131D01*
X215209Y456767D01*
X214894Y457411D01*
X214596Y458063D01*
X214313Y458722D01*
X214047Y459387D01*
X213797Y460059D01*
X213564Y460737D01*
X213348Y461421D01*
X213148Y462109D01*
X212965Y462803D01*
X212800Y463500D01*
X212651Y464201D01*
X212520Y464906D01*
X212406Y465614D01*
X212310Y466324D01*
X212231Y467037D01*
X212169Y467751D01*
X212125Y468467D01*
X212099Y469183D01*
X212090Y469900D01*
D11*
X184785Y486410D02*
X184785Y491490D01*
X184787Y491601D01*
X184793Y491711D01*
X184802Y491822D01*
X184816Y491932D01*
X184833Y492041D01*
X184854Y492150D01*
X184879Y492258D01*
X184908Y492365D01*
X184940Y492471D01*
X184976Y492576D01*
X185016Y492679D01*
X185059Y492781D01*
X185106Y492882D01*
X185157Y492981D01*
X185210Y493078D01*
X185267Y493172D01*
X185328Y493265D01*
X185391Y493356D01*
X185458Y493445D01*
X185528Y493531D01*
X185601Y493614D01*
X185676Y493696D01*
X185754Y493774D01*
X185836Y493849D01*
X185919Y493922D01*
X186005Y493992D01*
X186094Y494059D01*
X186185Y494122D01*
X186278Y494183D01*
X186373Y494240D01*
X186469Y494293D01*
X186568Y494344D01*
X186669Y494391D01*
X186771Y494434D01*
X186874Y494474D01*
X186979Y494510D01*
X187085Y494542D01*
X187192Y494571D01*
X187300Y494596D01*
X187409Y494617D01*
X187518Y494634D01*
X187628Y494648D01*
X187739Y494657D01*
X187849Y494663D01*
X187960Y494665D01*
X188071Y494663D01*
X188181Y494657D01*
X188292Y494648D01*
X188402Y494634D01*
X188511Y494617D01*
X188620Y494596D01*
X188728Y494571D01*
X188835Y494542D01*
X188941Y494510D01*
X189046Y494474D01*
X189149Y494434D01*
X189251Y494391D01*
X189352Y494344D01*
X189451Y494293D01*
X189548Y494240D01*
X189642Y494183D01*
X189735Y494122D01*
X189826Y494059D01*
X189915Y493992D01*
X190001Y493922D01*
X190084Y493849D01*
X190166Y493774D01*
X190244Y493696D01*
X190319Y493614D01*
X190392Y493531D01*
X190462Y493445D01*
X190529Y493356D01*
X190592Y493265D01*
X190653Y493172D01*
X190710Y493078D01*
X190763Y492981D01*
X190814Y492882D01*
X190861Y492781D01*
X190904Y492679D01*
X190944Y492576D01*
X190980Y492471D01*
X191012Y492365D01*
X191041Y492258D01*
X191066Y492150D01*
X191087Y492041D01*
X191104Y491932D01*
X191118Y491822D01*
X191127Y491711D01*
X191133Y491601D01*
X191135Y491490D01*
X191135Y486410D01*
X191133Y486299D01*
X191127Y486189D01*
X191118Y486078D01*
X191104Y485968D01*
X191087Y485859D01*
X191066Y485750D01*
X191041Y485642D01*
X191012Y485535D01*
X190980Y485429D01*
X190944Y485324D01*
X190904Y485221D01*
X190861Y485119D01*
X190814Y485018D01*
X190763Y484919D01*
X190710Y484822D01*
X190653Y484728D01*
X190592Y484635D01*
X190529Y484544D01*
X190462Y484455D01*
X190392Y484369D01*
X190319Y484286D01*
X190244Y484204D01*
X190166Y484126D01*
X190084Y484051D01*
X190001Y483978D01*
X189915Y483908D01*
X189826Y483841D01*
X189735Y483778D01*
X189642Y483717D01*
X189547Y483660D01*
X189451Y483607D01*
X189352Y483556D01*
X189251Y483509D01*
X189149Y483466D01*
X189046Y483426D01*
X188941Y483390D01*
X188835Y483358D01*
X188728Y483329D01*
X188620Y483304D01*
X188511Y483283D01*
X188402Y483266D01*
X188292Y483252D01*
X188181Y483243D01*
X188071Y483237D01*
X187960Y483235D01*
X187849Y483237D01*
X187739Y483243D01*
X187628Y483252D01*
X187518Y483266D01*
X187409Y483283D01*
X187300Y483304D01*
X187192Y483329D01*
X187085Y483358D01*
X186979Y483390D01*
X186874Y483426D01*
X186771Y483466D01*
X186669Y483509D01*
X186568Y483556D01*
X186469Y483607D01*
X186373Y483660D01*
X186278Y483717D01*
X186185Y483778D01*
X186094Y483841D01*
X186005Y483908D01*
X185919Y483978D01*
X185836Y484051D01*
X185754Y484126D01*
X185676Y484204D01*
X185601Y484286D01*
X185528Y484369D01*
X185458Y484455D01*
X185391Y484544D01*
X185328Y484635D01*
X185267Y484728D01*
X185210Y484823D01*
X185157Y484919D01*
X185106Y485018D01*
X185059Y485119D01*
X185016Y485221D01*
X184976Y485324D01*
X184940Y485429D01*
X184908Y485535D01*
X184879Y485642D01*
X184854Y485750D01*
X184833Y485859D01*
X184816Y485968D01*
X184802Y486078D01*
X184793Y486189D01*
X184787Y486299D01*
X184785Y486410D01*
X189865Y485775D02*
X192405Y483235D01*
X202196Y491808D02*
X202194Y491912D01*
X202188Y492017D01*
X202179Y492121D01*
X202166Y492224D01*
X202148Y492327D01*
X202128Y492429D01*
X202103Y492531D01*
X202075Y492631D01*
X202043Y492731D01*
X202007Y492829D01*
X201968Y492926D01*
X201926Y493021D01*
X201880Y493115D01*
X201830Y493207D01*
X201778Y493297D01*
X201722Y493385D01*
X201662Y493471D01*
X201600Y493555D01*
X201535Y493636D01*
X201467Y493715D01*
X201395Y493792D01*
X201322Y493865D01*
X201245Y493937D01*
X201166Y494005D01*
X201085Y494070D01*
X201001Y494132D01*
X200915Y494192D01*
X200827Y494248D01*
X200737Y494300D01*
X200645Y494350D01*
X200551Y494396D01*
X200456Y494438D01*
X200359Y494477D01*
X200261Y494513D01*
X200161Y494545D01*
X200061Y494573D01*
X199959Y494598D01*
X199857Y494618D01*
X199754Y494636D01*
X199651Y494649D01*
X199547Y494658D01*
X199442Y494664D01*
X199338Y494666D01*
X199338Y494665D02*
X199220Y494663D01*
X199101Y494657D01*
X198983Y494648D01*
X198866Y494635D01*
X198749Y494617D01*
X198632Y494597D01*
X198516Y494572D01*
X198401Y494544D01*
X198288Y494511D01*
X198175Y494476D01*
X198063Y494436D01*
X197953Y494394D01*
X197844Y494347D01*
X197736Y494297D01*
X197631Y494244D01*
X197527Y494187D01*
X197425Y494127D01*
X197325Y494064D01*
X197227Y493997D01*
X197131Y493928D01*
X197038Y493855D01*
X196947Y493779D01*
X196858Y493701D01*
X196772Y493619D01*
X196689Y493535D01*
X196608Y493449D01*
X196531Y493359D01*
X196456Y493268D01*
X196384Y493174D01*
X196315Y493077D01*
X196250Y492979D01*
X196187Y492878D01*
X196128Y492775D01*
X196072Y492671D01*
X196020Y492565D01*
X195971Y492457D01*
X195926Y492348D01*
X195884Y492237D01*
X195846Y492125D01*
X201243Y489586D02*
X201319Y489661D01*
X201394Y489740D01*
X201465Y489821D01*
X201534Y489905D01*
X201599Y489991D01*
X201661Y490079D01*
X201721Y490169D01*
X201777Y490261D01*
X201830Y490356D01*
X201879Y490452D01*
X201925Y490550D01*
X201968Y490649D01*
X202007Y490750D01*
X202042Y490852D01*
X202074Y490955D01*
X202102Y491059D01*
X202127Y491164D01*
X202148Y491271D01*
X202165Y491377D01*
X202178Y491484D01*
X202187Y491592D01*
X202193Y491700D01*
X202195Y491808D01*
X201243Y489585D02*
X195846Y483235D01*
X202196Y483235D01*
D10*
X200660Y415290D02*
X200560Y415288D01*
X200461Y415282D01*
X200361Y415272D01*
X200263Y415259D01*
X200164Y415241D01*
X200067Y415220D01*
X199971Y415195D01*
X199875Y415166D01*
X199781Y415133D01*
X199688Y415097D01*
X199597Y415057D01*
X199507Y415013D01*
X199419Y414966D01*
X199333Y414916D01*
X199249Y414862D01*
X199167Y414805D01*
X199088Y414745D01*
X199010Y414681D01*
X198936Y414615D01*
X198864Y414546D01*
X198795Y414474D01*
X198729Y414400D01*
X198665Y414322D01*
X198605Y414243D01*
X198548Y414161D01*
X198494Y414077D01*
X198444Y413991D01*
X198397Y413903D01*
X198353Y413813D01*
X198313Y413722D01*
X198277Y413629D01*
X198244Y413535D01*
X198215Y413439D01*
X198190Y413343D01*
X198169Y413246D01*
X198151Y413147D01*
X198138Y413049D01*
X198128Y412949D01*
X198122Y412850D01*
X198120Y412750D01*
X198120Y400050D02*
X198122Y399950D01*
X198128Y399851D01*
X198138Y399751D01*
X198151Y399653D01*
X198169Y399554D01*
X198190Y399457D01*
X198215Y399361D01*
X198244Y399265D01*
X198277Y399171D01*
X198313Y399078D01*
X198353Y398987D01*
X198397Y398897D01*
X198444Y398809D01*
X198494Y398723D01*
X198548Y398639D01*
X198605Y398557D01*
X198665Y398478D01*
X198729Y398400D01*
X198795Y398326D01*
X198864Y398254D01*
X198936Y398185D01*
X199010Y398119D01*
X199088Y398055D01*
X199167Y397995D01*
X199249Y397938D01*
X199333Y397884D01*
X199419Y397834D01*
X199507Y397787D01*
X199597Y397743D01*
X199688Y397703D01*
X199781Y397667D01*
X199875Y397634D01*
X199971Y397605D01*
X200067Y397580D01*
X200164Y397559D01*
X200263Y397541D01*
X200361Y397528D01*
X200461Y397518D01*
X200560Y397512D01*
X200660Y397510D01*
X231140Y397510D02*
X231240Y397512D01*
X231339Y397518D01*
X231439Y397528D01*
X231537Y397541D01*
X231636Y397559D01*
X231733Y397580D01*
X231829Y397605D01*
X231925Y397634D01*
X232019Y397667D01*
X232112Y397703D01*
X232203Y397743D01*
X232293Y397787D01*
X232381Y397834D01*
X232467Y397884D01*
X232551Y397938D01*
X232633Y397995D01*
X232712Y398055D01*
X232790Y398119D01*
X232864Y398185D01*
X232936Y398254D01*
X233005Y398326D01*
X233071Y398400D01*
X233135Y398478D01*
X233195Y398557D01*
X233252Y398639D01*
X233306Y398723D01*
X233356Y398809D01*
X233403Y398897D01*
X233447Y398987D01*
X233487Y399078D01*
X233523Y399171D01*
X233556Y399265D01*
X233585Y399361D01*
X233610Y399457D01*
X233631Y399554D01*
X233649Y399653D01*
X233662Y399751D01*
X233672Y399851D01*
X233678Y399950D01*
X233680Y400050D01*
X233680Y412750D02*
X233678Y412850D01*
X233672Y412949D01*
X233662Y413049D01*
X233649Y413147D01*
X233631Y413246D01*
X233610Y413343D01*
X233585Y413439D01*
X233556Y413535D01*
X233523Y413629D01*
X233487Y413722D01*
X233447Y413813D01*
X233403Y413903D01*
X233356Y413991D01*
X233306Y414077D01*
X233252Y414161D01*
X233195Y414243D01*
X233135Y414322D01*
X233071Y414400D01*
X233005Y414474D01*
X232936Y414546D01*
X232864Y414615D01*
X232790Y414681D01*
X232712Y414745D01*
X232633Y414805D01*
X232551Y414862D01*
X232467Y414916D01*
X232381Y414966D01*
X232293Y415013D01*
X232203Y415057D01*
X232112Y415097D01*
X232019Y415133D01*
X231925Y415166D01*
X231829Y415195D01*
X231733Y415220D01*
X231636Y415241D01*
X231537Y415259D01*
X231439Y415272D01*
X231339Y415282D01*
X231240Y415288D01*
X231140Y415290D01*
X203200Y415290D02*
X200660Y415290D01*
X203200Y415290D02*
X204470Y414020D01*
X203200Y397510D02*
X200660Y397510D01*
X203200Y397510D02*
X204470Y398780D01*
X227330Y414020D02*
X228600Y415290D01*
X227330Y414020D02*
X204470Y414020D01*
X227330Y398780D02*
X228600Y397510D01*
X227330Y398780D02*
X204470Y398780D01*
X228600Y415290D02*
X231140Y415290D01*
X231140Y397510D02*
X228600Y397510D01*
D14*
X209042Y389382D02*
X209042Y380492D01*
X209042Y389382D02*
X211511Y389382D01*
X211609Y389380D01*
X211707Y389374D01*
X211805Y389364D01*
X211902Y389351D01*
X211999Y389333D01*
X212095Y389312D01*
X212189Y389287D01*
X212283Y389258D01*
X212376Y389226D01*
X212467Y389189D01*
X212557Y389150D01*
X212645Y389106D01*
X212731Y389059D01*
X212816Y389009D01*
X212898Y388956D01*
X212978Y388899D01*
X213056Y388839D01*
X213131Y388776D01*
X213204Y388710D01*
X213274Y388641D01*
X213341Y388570D01*
X213406Y388496D01*
X213467Y388419D01*
X213526Y388340D01*
X213581Y388259D01*
X213633Y388176D01*
X213681Y388090D01*
X213726Y388003D01*
X213768Y387914D01*
X213806Y387824D01*
X213840Y387732D01*
X213871Y387639D01*
X213898Y387544D01*
X213921Y387449D01*
X213941Y387352D01*
X213956Y387256D01*
X213968Y387158D01*
X213976Y387060D01*
X213980Y386962D01*
X213980Y386864D01*
X213976Y386766D01*
X213968Y386668D01*
X213956Y386570D01*
X213941Y386474D01*
X213921Y386377D01*
X213898Y386282D01*
X213871Y386187D01*
X213840Y386094D01*
X213806Y386002D01*
X213768Y385912D01*
X213726Y385823D01*
X213681Y385736D01*
X213633Y385650D01*
X213581Y385567D01*
X213526Y385486D01*
X213467Y385407D01*
X213406Y385330D01*
X213341Y385256D01*
X213274Y385185D01*
X213204Y385116D01*
X213131Y385050D01*
X213056Y384987D01*
X212978Y384927D01*
X212898Y384870D01*
X212816Y384817D01*
X212731Y384767D01*
X212645Y384720D01*
X212557Y384676D01*
X212467Y384637D01*
X212376Y384600D01*
X212283Y384568D01*
X212189Y384539D01*
X212095Y384514D01*
X211999Y384493D01*
X211902Y384475D01*
X211805Y384462D01*
X211707Y384452D01*
X211609Y384446D01*
X211511Y384444D01*
X211511Y384443D02*
X209042Y384443D01*
X212005Y384443D02*
X213981Y380492D01*
X217892Y387406D02*
X220361Y389382D01*
X220361Y380492D01*
X217892Y380492D02*
X222831Y380492D01*
D12*
X268100Y369700D02*
X271100Y369700D01*
X268100Y369700D02*
X268100Y417700D01*
X279600Y417700D01*
X312100Y369700D02*
X316100Y369700D01*
X316100Y417700D01*
X304600Y417700D01*
X294600Y369700D02*
X289600Y369700D01*
D14*
X273600Y393700D02*
X273606Y394154D01*
X273622Y394608D01*
X273650Y395061D01*
X273689Y395513D01*
X273739Y395965D01*
X273800Y396415D01*
X273872Y396863D01*
X273955Y397309D01*
X274050Y397753D01*
X274154Y398195D01*
X274270Y398634D01*
X274397Y399070D01*
X274534Y399503D01*
X274681Y399932D01*
X274840Y400358D01*
X275008Y400780D01*
X275187Y401197D01*
X275376Y401610D01*
X275575Y402018D01*
X275784Y402421D01*
X276003Y402819D01*
X276232Y403211D01*
X276470Y403597D01*
X276718Y403978D01*
X276975Y404352D01*
X277241Y404720D01*
X277516Y405082D01*
X277799Y405436D01*
X278092Y405784D01*
X278392Y406124D01*
X278701Y406457D01*
X279019Y406781D01*
X279343Y407099D01*
X279676Y407408D01*
X280016Y407708D01*
X280364Y408001D01*
X280718Y408284D01*
X281080Y408559D01*
X281448Y408825D01*
X281822Y409082D01*
X282203Y409330D01*
X282589Y409568D01*
X282981Y409797D01*
X283379Y410016D01*
X283782Y410225D01*
X284190Y410424D01*
X284603Y410613D01*
X285020Y410792D01*
X285442Y410960D01*
X285868Y411119D01*
X286297Y411266D01*
X286730Y411403D01*
X287166Y411530D01*
X287605Y411646D01*
X288047Y411750D01*
X288491Y411845D01*
X288937Y411928D01*
X289385Y412000D01*
X289835Y412061D01*
X290287Y412111D01*
X290739Y412150D01*
X291192Y412178D01*
X291646Y412194D01*
X292100Y412200D01*
X292554Y412194D01*
X293008Y412178D01*
X293461Y412150D01*
X293913Y412111D01*
X294365Y412061D01*
X294815Y412000D01*
X295263Y411928D01*
X295709Y411845D01*
X296153Y411750D01*
X296595Y411646D01*
X297034Y411530D01*
X297470Y411403D01*
X297903Y411266D01*
X298332Y411119D01*
X298758Y410960D01*
X299180Y410792D01*
X299597Y410613D01*
X300010Y410424D01*
X300418Y410225D01*
X300821Y410016D01*
X301219Y409797D01*
X301611Y409568D01*
X301997Y409330D01*
X302378Y409082D01*
X302752Y408825D01*
X303120Y408559D01*
X303482Y408284D01*
X303836Y408001D01*
X304184Y407708D01*
X304524Y407408D01*
X304857Y407099D01*
X305181Y406781D01*
X305499Y406457D01*
X305808Y406124D01*
X306108Y405784D01*
X306401Y405436D01*
X306684Y405082D01*
X306959Y404720D01*
X307225Y404352D01*
X307482Y403978D01*
X307730Y403597D01*
X307968Y403211D01*
X308197Y402819D01*
X308416Y402421D01*
X308625Y402018D01*
X308824Y401610D01*
X309013Y401197D01*
X309192Y400780D01*
X309360Y400358D01*
X309519Y399932D01*
X309666Y399503D01*
X309803Y399070D01*
X309930Y398634D01*
X310046Y398195D01*
X310150Y397753D01*
X310245Y397309D01*
X310328Y396863D01*
X310400Y396415D01*
X310461Y395965D01*
X310511Y395513D01*
X310550Y395061D01*
X310578Y394608D01*
X310594Y394154D01*
X310600Y393700D01*
X310594Y393246D01*
X310578Y392792D01*
X310550Y392339D01*
X310511Y391887D01*
X310461Y391435D01*
X310400Y390985D01*
X310328Y390537D01*
X310245Y390091D01*
X310150Y389647D01*
X310046Y389205D01*
X309930Y388766D01*
X309803Y388330D01*
X309666Y387897D01*
X309519Y387468D01*
X309360Y387042D01*
X309192Y386620D01*
X309013Y386203D01*
X308824Y385790D01*
X308625Y385382D01*
X308416Y384979D01*
X308197Y384581D01*
X307968Y384189D01*
X307730Y383803D01*
X307482Y383422D01*
X307225Y383048D01*
X306959Y382680D01*
X306684Y382318D01*
X306401Y381964D01*
X306108Y381616D01*
X305808Y381276D01*
X305499Y380943D01*
X305181Y380619D01*
X304857Y380301D01*
X304524Y379992D01*
X304184Y379692D01*
X303836Y379399D01*
X303482Y379116D01*
X303120Y378841D01*
X302752Y378575D01*
X302378Y378318D01*
X301997Y378070D01*
X301611Y377832D01*
X301219Y377603D01*
X300821Y377384D01*
X300418Y377175D01*
X300010Y376976D01*
X299597Y376787D01*
X299180Y376608D01*
X298758Y376440D01*
X298332Y376281D01*
X297903Y376134D01*
X297470Y375997D01*
X297034Y375870D01*
X296595Y375754D01*
X296153Y375650D01*
X295709Y375555D01*
X295263Y375472D01*
X294815Y375400D01*
X294365Y375339D01*
X293913Y375289D01*
X293461Y375250D01*
X293008Y375222D01*
X292554Y375206D01*
X292100Y375200D01*
X291646Y375206D01*
X291192Y375222D01*
X290739Y375250D01*
X290287Y375289D01*
X289835Y375339D01*
X289385Y375400D01*
X288937Y375472D01*
X288491Y375555D01*
X288047Y375650D01*
X287605Y375754D01*
X287166Y375870D01*
X286730Y375997D01*
X286297Y376134D01*
X285868Y376281D01*
X285442Y376440D01*
X285020Y376608D01*
X284603Y376787D01*
X284190Y376976D01*
X283782Y377175D01*
X283379Y377384D01*
X282981Y377603D01*
X282589Y377832D01*
X282203Y378070D01*
X281822Y378318D01*
X281448Y378575D01*
X281080Y378841D01*
X280718Y379116D01*
X280364Y379399D01*
X280016Y379692D01*
X279676Y379992D01*
X279343Y380301D01*
X279019Y380619D01*
X278701Y380943D01*
X278392Y381276D01*
X278092Y381616D01*
X277799Y381964D01*
X277516Y382318D01*
X277241Y382680D01*
X276975Y383048D01*
X276718Y383422D01*
X276470Y383803D01*
X276232Y384189D01*
X276003Y384581D01*
X275784Y384979D01*
X275575Y385382D01*
X275376Y385790D01*
X275187Y386203D01*
X275008Y386620D01*
X274840Y387042D01*
X274681Y387468D01*
X274534Y387897D01*
X274397Y388330D01*
X274270Y388766D01*
X274154Y389205D01*
X274050Y389647D01*
X273955Y390091D01*
X273872Y390537D01*
X273800Y390985D01*
X273739Y391435D01*
X273689Y391887D01*
X273650Y392339D01*
X273622Y392792D01*
X273606Y393246D01*
X273600Y393700D01*
D15*
X292350Y393700D03*
D16*
X292100Y393450D03*
D14*
X276558Y432308D02*
X276558Y443992D01*
X279804Y443992D01*
X279917Y443990D01*
X280030Y443984D01*
X280143Y443974D01*
X280256Y443960D01*
X280368Y443943D01*
X280479Y443921D01*
X280589Y443896D01*
X280699Y443866D01*
X280807Y443833D01*
X280914Y443796D01*
X281020Y443756D01*
X281124Y443711D01*
X281227Y443663D01*
X281328Y443612D01*
X281427Y443557D01*
X281524Y443499D01*
X281619Y443437D01*
X281712Y443372D01*
X281802Y443304D01*
X281890Y443233D01*
X281976Y443158D01*
X282059Y443081D01*
X282139Y443001D01*
X282216Y442918D01*
X282291Y442832D01*
X282362Y442744D01*
X282430Y442654D01*
X282495Y442561D01*
X282557Y442466D01*
X282615Y442369D01*
X282670Y442270D01*
X282721Y442169D01*
X282769Y442066D01*
X282814Y441962D01*
X282854Y441856D01*
X282891Y441749D01*
X282924Y441641D01*
X282954Y441531D01*
X282979Y441421D01*
X283001Y441310D01*
X283018Y441198D01*
X283032Y441085D01*
X283042Y440972D01*
X283048Y440859D01*
X283050Y440746D01*
X283048Y440633D01*
X283042Y440520D01*
X283032Y440407D01*
X283018Y440294D01*
X283001Y440182D01*
X282979Y440071D01*
X282954Y439961D01*
X282924Y439851D01*
X282891Y439743D01*
X282854Y439636D01*
X282814Y439530D01*
X282769Y439426D01*
X282721Y439323D01*
X282670Y439222D01*
X282615Y439123D01*
X282557Y439026D01*
X282495Y438931D01*
X282430Y438838D01*
X282362Y438748D01*
X282291Y438660D01*
X282216Y438574D01*
X282139Y438491D01*
X282059Y438411D01*
X281976Y438334D01*
X281890Y438259D01*
X281802Y438188D01*
X281712Y438120D01*
X281619Y438055D01*
X281524Y437993D01*
X281427Y437935D01*
X281328Y437880D01*
X281227Y437829D01*
X281124Y437781D01*
X281020Y437736D01*
X280914Y437696D01*
X280807Y437659D01*
X280699Y437626D01*
X280589Y437596D01*
X280479Y437571D01*
X280368Y437549D01*
X280256Y437532D01*
X280143Y437518D01*
X280030Y437508D01*
X279917Y437502D01*
X279804Y437500D01*
X279804Y437501D02*
X276558Y437501D01*
X280453Y437501D02*
X283049Y432308D01*
X294405Y441071D02*
X294403Y441178D01*
X294397Y441284D01*
X294387Y441390D01*
X294374Y441496D01*
X294356Y441602D01*
X294335Y441706D01*
X294310Y441810D01*
X294281Y441913D01*
X294249Y442014D01*
X294212Y442114D01*
X294172Y442213D01*
X294129Y442311D01*
X294082Y442407D01*
X294031Y442501D01*
X293977Y442593D01*
X293920Y442683D01*
X293860Y442771D01*
X293796Y442856D01*
X293729Y442939D01*
X293659Y443020D01*
X293587Y443098D01*
X293511Y443174D01*
X293433Y443246D01*
X293352Y443316D01*
X293269Y443383D01*
X293184Y443447D01*
X293096Y443507D01*
X293006Y443564D01*
X292914Y443618D01*
X292820Y443669D01*
X292724Y443716D01*
X292626Y443759D01*
X292527Y443799D01*
X292427Y443836D01*
X292326Y443868D01*
X292223Y443897D01*
X292119Y443922D01*
X292015Y443943D01*
X291909Y443961D01*
X291803Y443974D01*
X291697Y443984D01*
X291591Y443990D01*
X291484Y443992D01*
X291363Y443990D01*
X291242Y443984D01*
X291122Y443974D01*
X291001Y443961D01*
X290882Y443943D01*
X290762Y443922D01*
X290644Y443897D01*
X290527Y443868D01*
X290410Y443835D01*
X290295Y443799D01*
X290181Y443758D01*
X290068Y443715D01*
X289956Y443667D01*
X289847Y443616D01*
X289739Y443561D01*
X289632Y443503D01*
X289528Y443442D01*
X289426Y443377D01*
X289326Y443309D01*
X289228Y443238D01*
X289132Y443164D01*
X289039Y443087D01*
X288949Y443006D01*
X288861Y442923D01*
X288776Y442837D01*
X288693Y442748D01*
X288614Y442657D01*
X288537Y442563D01*
X288464Y442467D01*
X288394Y442369D01*
X288327Y442268D01*
X288263Y442165D01*
X288203Y442060D01*
X288146Y441953D01*
X288092Y441845D01*
X288042Y441735D01*
X287996Y441623D01*
X287953Y441510D01*
X287914Y441395D01*
X293432Y438799D02*
X293511Y438876D01*
X293587Y438957D01*
X293660Y439040D01*
X293730Y439125D01*
X293797Y439213D01*
X293861Y439303D01*
X293921Y439395D01*
X293978Y439490D01*
X294032Y439586D01*
X294083Y439684D01*
X294130Y439784D01*
X294174Y439886D01*
X294214Y439989D01*
X294250Y440093D01*
X294282Y440199D01*
X294311Y440305D01*
X294336Y440413D01*
X294358Y440521D01*
X294375Y440631D01*
X294389Y440740D01*
X294398Y440850D01*
X294404Y440961D01*
X294406Y441071D01*
X293432Y438799D02*
X287914Y432308D01*
X294405Y432308D01*
D10*
X124460Y415290D02*
X124360Y415288D01*
X124261Y415282D01*
X124161Y415272D01*
X124063Y415259D01*
X123964Y415241D01*
X123867Y415220D01*
X123771Y415195D01*
X123675Y415166D01*
X123581Y415133D01*
X123488Y415097D01*
X123397Y415057D01*
X123307Y415013D01*
X123219Y414966D01*
X123133Y414916D01*
X123049Y414862D01*
X122967Y414805D01*
X122888Y414745D01*
X122810Y414681D01*
X122736Y414615D01*
X122664Y414546D01*
X122595Y414474D01*
X122529Y414400D01*
X122465Y414322D01*
X122405Y414243D01*
X122348Y414161D01*
X122294Y414077D01*
X122244Y413991D01*
X122197Y413903D01*
X122153Y413813D01*
X122113Y413722D01*
X122077Y413629D01*
X122044Y413535D01*
X122015Y413439D01*
X121990Y413343D01*
X121969Y413246D01*
X121951Y413147D01*
X121938Y413049D01*
X121928Y412949D01*
X121922Y412850D01*
X121920Y412750D01*
X121920Y400050D02*
X121922Y399950D01*
X121928Y399851D01*
X121938Y399751D01*
X121951Y399653D01*
X121969Y399554D01*
X121990Y399457D01*
X122015Y399361D01*
X122044Y399265D01*
X122077Y399171D01*
X122113Y399078D01*
X122153Y398987D01*
X122197Y398897D01*
X122244Y398809D01*
X122294Y398723D01*
X122348Y398639D01*
X122405Y398557D01*
X122465Y398478D01*
X122529Y398400D01*
X122595Y398326D01*
X122664Y398254D01*
X122736Y398185D01*
X122810Y398119D01*
X122888Y398055D01*
X122967Y397995D01*
X123049Y397938D01*
X123133Y397884D01*
X123219Y397834D01*
X123307Y397787D01*
X123397Y397743D01*
X123488Y397703D01*
X123581Y397667D01*
X123675Y397634D01*
X123771Y397605D01*
X123867Y397580D01*
X123964Y397559D01*
X124063Y397541D01*
X124161Y397528D01*
X124261Y397518D01*
X124360Y397512D01*
X124460Y397510D01*
X154940Y397510D02*
X155040Y397512D01*
X155139Y397518D01*
X155239Y397528D01*
X155337Y397541D01*
X155436Y397559D01*
X155533Y397580D01*
X155629Y397605D01*
X155725Y397634D01*
X155819Y397667D01*
X155912Y397703D01*
X156003Y397743D01*
X156093Y397787D01*
X156181Y397834D01*
X156267Y397884D01*
X156351Y397938D01*
X156433Y397995D01*
X156512Y398055D01*
X156590Y398119D01*
X156664Y398185D01*
X156736Y398254D01*
X156805Y398326D01*
X156871Y398400D01*
X156935Y398478D01*
X156995Y398557D01*
X157052Y398639D01*
X157106Y398723D01*
X157156Y398809D01*
X157203Y398897D01*
X157247Y398987D01*
X157287Y399078D01*
X157323Y399171D01*
X157356Y399265D01*
X157385Y399361D01*
X157410Y399457D01*
X157431Y399554D01*
X157449Y399653D01*
X157462Y399751D01*
X157472Y399851D01*
X157478Y399950D01*
X157480Y400050D01*
X157480Y412750D02*
X157478Y412850D01*
X157472Y412949D01*
X157462Y413049D01*
X157449Y413147D01*
X157431Y413246D01*
X157410Y413343D01*
X157385Y413439D01*
X157356Y413535D01*
X157323Y413629D01*
X157287Y413722D01*
X157247Y413813D01*
X157203Y413903D01*
X157156Y413991D01*
X157106Y414077D01*
X157052Y414161D01*
X156995Y414243D01*
X156935Y414322D01*
X156871Y414400D01*
X156805Y414474D01*
X156736Y414546D01*
X156664Y414615D01*
X156590Y414681D01*
X156512Y414745D01*
X156433Y414805D01*
X156351Y414862D01*
X156267Y414916D01*
X156181Y414966D01*
X156093Y415013D01*
X156003Y415057D01*
X155912Y415097D01*
X155819Y415133D01*
X155725Y415166D01*
X155629Y415195D01*
X155533Y415220D01*
X155436Y415241D01*
X155337Y415259D01*
X155239Y415272D01*
X155139Y415282D01*
X155040Y415288D01*
X154940Y415290D01*
X127000Y415290D02*
X124460Y415290D01*
X127000Y415290D02*
X128270Y414020D01*
X127000Y397510D02*
X124460Y397510D01*
X127000Y397510D02*
X128270Y398780D01*
X151130Y414020D02*
X152400Y415290D01*
X151130Y414020D02*
X128270Y414020D01*
X151130Y398780D02*
X152400Y397510D01*
X151130Y398780D02*
X128270Y398780D01*
X152400Y415290D02*
X154940Y415290D01*
X154940Y397510D02*
X152400Y397510D01*
D14*
X132842Y389382D02*
X132842Y380492D01*
X132842Y389382D02*
X135311Y389382D01*
X135409Y389380D01*
X135507Y389374D01*
X135605Y389364D01*
X135702Y389351D01*
X135799Y389333D01*
X135895Y389312D01*
X135989Y389287D01*
X136083Y389258D01*
X136176Y389226D01*
X136267Y389189D01*
X136357Y389150D01*
X136445Y389106D01*
X136531Y389059D01*
X136616Y389009D01*
X136698Y388956D01*
X136778Y388899D01*
X136856Y388839D01*
X136931Y388776D01*
X137004Y388710D01*
X137074Y388641D01*
X137141Y388570D01*
X137206Y388496D01*
X137267Y388419D01*
X137326Y388340D01*
X137381Y388259D01*
X137433Y388176D01*
X137481Y388090D01*
X137526Y388003D01*
X137568Y387914D01*
X137606Y387824D01*
X137640Y387732D01*
X137671Y387639D01*
X137698Y387544D01*
X137721Y387449D01*
X137741Y387352D01*
X137756Y387256D01*
X137768Y387158D01*
X137776Y387060D01*
X137780Y386962D01*
X137780Y386864D01*
X137776Y386766D01*
X137768Y386668D01*
X137756Y386570D01*
X137741Y386474D01*
X137721Y386377D01*
X137698Y386282D01*
X137671Y386187D01*
X137640Y386094D01*
X137606Y386002D01*
X137568Y385912D01*
X137526Y385823D01*
X137481Y385736D01*
X137433Y385650D01*
X137381Y385567D01*
X137326Y385486D01*
X137267Y385407D01*
X137206Y385330D01*
X137141Y385256D01*
X137074Y385185D01*
X137004Y385116D01*
X136931Y385050D01*
X136856Y384987D01*
X136778Y384927D01*
X136698Y384870D01*
X136616Y384817D01*
X136531Y384767D01*
X136445Y384720D01*
X136357Y384676D01*
X136267Y384637D01*
X136176Y384600D01*
X136083Y384568D01*
X135989Y384539D01*
X135895Y384514D01*
X135799Y384493D01*
X135702Y384475D01*
X135605Y384462D01*
X135507Y384452D01*
X135409Y384446D01*
X135311Y384444D01*
X135311Y384443D02*
X132842Y384443D01*
X135805Y384443D02*
X137781Y380492D01*
X141692Y380492D02*
X144161Y380492D01*
X144259Y380494D01*
X144357Y380500D01*
X144455Y380510D01*
X144552Y380523D01*
X144649Y380541D01*
X144745Y380562D01*
X144839Y380587D01*
X144933Y380616D01*
X145026Y380648D01*
X145117Y380685D01*
X145207Y380724D01*
X145295Y380768D01*
X145381Y380815D01*
X145466Y380865D01*
X145548Y380918D01*
X145628Y380975D01*
X145706Y381035D01*
X145781Y381098D01*
X145854Y381164D01*
X145924Y381233D01*
X145991Y381304D01*
X146056Y381378D01*
X146117Y381455D01*
X146176Y381534D01*
X146231Y381615D01*
X146283Y381698D01*
X146331Y381784D01*
X146376Y381871D01*
X146418Y381960D01*
X146456Y382050D01*
X146490Y382142D01*
X146521Y382235D01*
X146548Y382330D01*
X146571Y382425D01*
X146591Y382522D01*
X146606Y382618D01*
X146618Y382716D01*
X146626Y382814D01*
X146630Y382912D01*
X146630Y383010D01*
X146626Y383108D01*
X146618Y383206D01*
X146606Y383304D01*
X146591Y383400D01*
X146571Y383497D01*
X146548Y383592D01*
X146521Y383687D01*
X146490Y383780D01*
X146456Y383872D01*
X146418Y383962D01*
X146376Y384051D01*
X146331Y384138D01*
X146283Y384224D01*
X146231Y384307D01*
X146176Y384388D01*
X146117Y384467D01*
X146056Y384544D01*
X145991Y384618D01*
X145924Y384689D01*
X145854Y384758D01*
X145781Y384824D01*
X145706Y384887D01*
X145628Y384947D01*
X145548Y385004D01*
X145466Y385057D01*
X145381Y385107D01*
X145295Y385154D01*
X145207Y385198D01*
X145117Y385237D01*
X145026Y385274D01*
X144933Y385306D01*
X144839Y385335D01*
X144745Y385360D01*
X144649Y385381D01*
X144552Y385399D01*
X144455Y385412D01*
X144357Y385422D01*
X144259Y385428D01*
X144161Y385430D01*
X144655Y389382D02*
X141692Y389382D01*
X144655Y389382D02*
X144742Y389380D01*
X144830Y389374D01*
X144917Y389365D01*
X145003Y389351D01*
X145089Y389334D01*
X145173Y389313D01*
X145257Y389288D01*
X145340Y389259D01*
X145421Y389227D01*
X145501Y389192D01*
X145579Y389153D01*
X145656Y389110D01*
X145730Y389064D01*
X145802Y389015D01*
X145872Y388963D01*
X145940Y388907D01*
X146005Y388849D01*
X146068Y388788D01*
X146127Y388724D01*
X146184Y388657D01*
X146238Y388589D01*
X146289Y388517D01*
X146336Y388444D01*
X146381Y388369D01*
X146422Y388291D01*
X146459Y388212D01*
X146493Y388132D01*
X146523Y388050D01*
X146550Y387967D01*
X146573Y387882D01*
X146592Y387797D01*
X146607Y387711D01*
X146619Y387624D01*
X146627Y387537D01*
X146631Y387450D01*
X146631Y387362D01*
X146627Y387275D01*
X146619Y387188D01*
X146607Y387101D01*
X146592Y387015D01*
X146573Y386930D01*
X146550Y386845D01*
X146523Y386762D01*
X146493Y386680D01*
X146459Y386600D01*
X146422Y386521D01*
X146381Y386443D01*
X146336Y386368D01*
X146289Y386295D01*
X146238Y386223D01*
X146184Y386155D01*
X146127Y386088D01*
X146068Y386024D01*
X146005Y385963D01*
X145940Y385905D01*
X145872Y385849D01*
X145802Y385797D01*
X145730Y385748D01*
X145656Y385702D01*
X145579Y385659D01*
X145501Y385620D01*
X145421Y385585D01*
X145340Y385553D01*
X145257Y385524D01*
X145173Y385499D01*
X145089Y385478D01*
X145003Y385461D01*
X144917Y385447D01*
X144830Y385438D01*
X144742Y385432D01*
X144655Y385430D01*
X144655Y385431D02*
X142680Y385431D01*
M02*
